G04*
G04 #@! TF.GenerationSoftware,Altium Limited,Altium Designer,25.8.1 (18)*
G04*
G04 Layer_Physical_Order=2*
G04 Layer_Color=36540*
%FSLAX44Y44*%
%MOMM*%
G71*
G04*
G04 #@! TF.SameCoordinates,50A64B13-7FFD-4F33-94AD-EF46CF3C26DA*
G04*
G04*
G04 #@! TF.FilePolarity,Positive*
G04*
G01*
G75*
%ADD12C,1.0000*%
%ADD13C,1.1000*%
%ADD19C,0.3000*%
%ADD24C,1.0000*%
%ADD26C,0.9000*%
%ADD27O,2.7000X0.8000*%
%ADD28C,0.3000*%
%ADD29C,0.6000*%
%ADD30C,4.4000*%
G36*
X766907Y793950D02*
X764069Y794236D01*
X762298Y794511D01*
X761769Y794725D01*
X764437Y794969D01*
X767635Y795000D01*
X766907Y793950D01*
D02*
G37*
G36*
X480923Y794969D02*
X478004Y794597D01*
X484654Y785000D01*
X475905Y777867D01*
X455360Y790952D01*
X434815Y777867D01*
X435269Y779222D01*
X435538Y780435D01*
X435623Y781505D01*
X435523Y782432D01*
X435239Y783217D01*
X434770Y783859D01*
X434117Y784358D01*
X433279Y784715D01*
X432256Y784929D01*
X431049Y785000D01*
X432780Y793898D01*
X429429Y794236D01*
X427658Y794511D01*
X427129Y794725D01*
X429797Y794969D01*
X432995Y795000D01*
X432911Y794572D01*
X448253Y792613D01*
X455405Y792061D01*
X461784Y792525D01*
X478004Y794597D01*
X477725Y795000D01*
X480923Y794969D01*
D02*
G37*
G36*
X771338Y793503D02*
X791559Y791945D01*
X769455Y777867D01*
X760706Y785000D01*
X766907Y793950D01*
X771338Y793503D01*
D02*
G37*
G36*
X55563Y794969D02*
X52645Y794597D01*
X59293Y785000D01*
X50545Y777867D01*
X28441Y791945D01*
X36424Y792525D01*
X52645Y794597D01*
X52365Y795000D01*
X55563Y794969D01*
D02*
G37*
G36*
X812525Y763576D02*
X814597Y747355D01*
X815000Y747635D01*
X814969Y744437D01*
X814597Y747355D01*
X805000Y740706D01*
X797867Y749455D01*
X811945Y771559D01*
X812525Y763576D01*
D02*
G37*
G36*
X6050Y746907D02*
X5764Y744069D01*
X5489Y742298D01*
X5275Y741769D01*
X5031Y744437D01*
X5000Y747635D01*
X6050Y746907D01*
D02*
G37*
G36*
X22133Y749455D02*
X15000Y740706D01*
X6050Y746907D01*
X6497Y751338D01*
X8055Y771559D01*
X22133Y749455D01*
D02*
G37*
G36*
X695000Y735456D02*
X693451Y734815D01*
X692185Y733549D01*
X691500Y731895D01*
Y730105D01*
X692185Y728451D01*
X693451Y727185D01*
X695000Y726544D01*
Y707314D01*
X693571Y706722D01*
X692305Y705456D01*
X691620Y703802D01*
Y702012D01*
X692305Y700358D01*
X693571Y699092D01*
X695000Y698500D01*
Y661379D01*
X694959D01*
X693305Y660694D01*
X692039Y659428D01*
X691354Y657774D01*
Y655984D01*
X692039Y654330D01*
X693305Y653064D01*
X694959Y652379D01*
X695000D01*
Y528456D01*
X693451Y527815D01*
X692185Y526549D01*
X691500Y524895D01*
Y523105D01*
X692185Y521451D01*
X693451Y520185D01*
X695000Y519543D01*
Y515778D01*
X694000Y515364D01*
X693549Y515815D01*
X691895Y516500D01*
X690105D01*
X688451Y515815D01*
X687185Y514549D01*
X686500Y512895D01*
Y511105D01*
X687185Y509451D01*
X688451Y508185D01*
X690105Y507500D01*
X691895D01*
X693549Y508185D01*
X694000Y508636D01*
X695000Y508222D01*
Y354744D01*
X694000Y354330D01*
X693665Y354665D01*
X692012Y355350D01*
X690221D01*
X688567Y354665D01*
X687302Y353399D01*
X686617Y351745D01*
Y349955D01*
X687302Y348301D01*
X688567Y347035D01*
X690221Y346350D01*
X692012D01*
X693665Y347035D01*
X694000Y347369D01*
X695000Y346955D01*
Y345000D01*
Y293167D01*
X694000Y292631D01*
X692738Y293154D01*
X690948D01*
X689294Y292468D01*
X688028Y291203D01*
X687343Y289549D01*
Y287759D01*
X688028Y286105D01*
X689294Y284839D01*
X690948Y284154D01*
X692738D01*
X694000Y284676D01*
X695000Y284140D01*
Y273000D01*
X507000D01*
X460108Y226108D01*
X432000Y198000D01*
X230301D01*
X230102Y199000D01*
X230549Y199185D01*
X231815Y200451D01*
X232500Y202105D01*
Y203895D01*
X231815Y205549D01*
X230549Y206815D01*
X230202Y206959D01*
Y208041D01*
X230549Y208185D01*
X231815Y209451D01*
X232500Y211105D01*
Y212895D01*
X231815Y214549D01*
X230549Y215815D01*
X230102Y216000D01*
Y217000D01*
X230549Y217185D01*
X231815Y218451D01*
X232500Y220105D01*
Y221895D01*
X231815Y223549D01*
X230549Y224815D01*
X228895Y225500D01*
X227105D01*
X225451Y224815D01*
X224185Y223549D01*
X223500Y221895D01*
Y220105D01*
X224185Y218451D01*
X225451Y217185D01*
X225898Y217000D01*
Y216000D01*
X225451Y215815D01*
X224185Y214549D01*
X223500Y212895D01*
Y211105D01*
X224185Y209451D01*
X225451Y208185D01*
X225798Y208041D01*
Y206959D01*
X225451Y206815D01*
X224185Y205549D01*
X223500Y203895D01*
Y202105D01*
X224185Y200451D01*
X225451Y199185D01*
X225898Y199000D01*
X225699Y198000D01*
X180596D01*
X166596Y184000D01*
X140000D01*
Y226243D01*
X147757Y234000D01*
X311636D01*
X312451Y233185D01*
X314105Y232500D01*
X315895D01*
X317549Y233185D01*
X318364Y234000D01*
X396000D01*
X445000Y283000D01*
X445000Y717000D01*
X502000Y774000D01*
X695000D01*
Y735456D01*
D02*
G37*
G36*
X779970Y506000D02*
X779799Y505990D01*
X779620Y505956D01*
X779435Y505898D01*
X779244Y505817D01*
X779045Y505712D01*
X778840Y505583D01*
X778628Y505430D01*
X778409Y505254D01*
X777951Y504829D01*
X775829Y506951D01*
X776053Y507183D01*
X776430Y507628D01*
X776583Y507840D01*
X776712Y508045D01*
X776817Y508244D01*
X776898Y508435D01*
X776956Y508620D01*
X776990Y508799D01*
X777000Y508970D01*
X779970Y506000D01*
D02*
G37*
G36*
X813950Y468093D02*
X814236Y470932D01*
X814511Y472703D01*
X814725Y473232D01*
X814969Y470563D01*
X815000Y467365D01*
X813950Y468093D01*
X813503Y463662D01*
X812065Y445000D01*
X813503Y426338D01*
X813950Y421907D01*
X805000Y415706D01*
X797867Y424455D01*
X810952Y445000D01*
X797867Y465545D01*
X805000Y474294D01*
X813950Y468093D01*
D02*
G37*
G36*
X5403Y467644D02*
X5000Y467365D01*
X5031Y470562D01*
X5403Y467644D01*
D02*
G37*
G36*
X443000Y731846D02*
Y287000D01*
X394500Y238500D01*
X393500Y238914D01*
Y239895D01*
X392815Y241549D01*
X391549Y242815D01*
X389895Y243500D01*
X388105D01*
X386451Y242815D01*
X385185Y241549D01*
X384500Y239895D01*
Y238105D01*
X384613Y237831D01*
X384058Y237000D01*
X319500D01*
Y237895D01*
X318815Y239549D01*
X317549Y240815D01*
X315895Y241500D01*
X314105D01*
X312451Y240815D01*
X311185Y239549D01*
X310500Y237895D01*
Y237000D01*
X146000D01*
X135381Y226381D01*
X134201Y226616D01*
X133815Y227549D01*
X132549Y228815D01*
X130895Y229500D01*
X129105D01*
X127451Y228815D01*
X126185Y227549D01*
X125500Y225895D01*
Y224105D01*
X126185Y222451D01*
X127451Y221185D01*
X129105Y220500D01*
X130895D01*
X132549Y221185D01*
X133815Y222451D01*
X134000Y222898D01*
X135000Y222699D01*
Y174000D01*
X174000D01*
X193816Y193816D01*
X431816D01*
X506708Y268708D01*
X694708D01*
X698470Y272470D01*
Y346309D01*
X699470Y346723D01*
X699902Y346291D01*
X701556Y345606D01*
X703346D01*
X705000Y346291D01*
X706266Y347557D01*
X706951Y349211D01*
Y351001D01*
X706266Y352655D01*
X705000Y353921D01*
X703346Y354606D01*
X701556D01*
X699902Y353921D01*
X699470Y353489D01*
X698470Y353903D01*
Y520152D01*
X698549Y520185D01*
X699815Y521451D01*
X700500Y523105D01*
Y524895D01*
X699815Y526549D01*
X698549Y527815D01*
X698470Y527848D01*
Y653131D01*
X699669Y654330D01*
X700354Y655984D01*
Y657774D01*
X699669Y659428D01*
X698470Y660627D01*
Y699009D01*
X698669Y699092D01*
X699935Y700358D01*
X700620Y702012D01*
Y703802D01*
X699935Y705456D01*
X698669Y706722D01*
X698470Y706804D01*
Y727152D01*
X698549Y727185D01*
X699815Y728451D01*
X700500Y730105D01*
Y731895D01*
X699815Y733549D01*
X698549Y734815D01*
X698470Y734848D01*
Y775000D01*
X743000D01*
X800000Y718000D01*
Y500000D01*
X761296Y461296D01*
X760372Y461679D01*
Y485046D01*
X778911Y503585D01*
X779054Y503638D01*
X779471Y504025D01*
X779612Y504138D01*
X779747Y504235D01*
X779858Y504305D01*
X779942Y504350D01*
X779996Y504372D01*
X780007Y504376D01*
X780066Y504379D01*
X780096Y504394D01*
X780102Y504395D01*
X780114Y504403D01*
X780315Y504500D01*
X780895D01*
X782549Y505185D01*
X783815Y506451D01*
X784500Y508105D01*
Y509895D01*
X783815Y511549D01*
X782549Y512815D01*
X780895Y513500D01*
X779105D01*
X777451Y512815D01*
X776185Y511549D01*
X775500Y509895D01*
Y509315D01*
X775403Y509114D01*
X775395Y509103D01*
X775394Y509096D01*
X775379Y509066D01*
X775376Y509007D01*
X775372Y508996D01*
X775350Y508942D01*
X775305Y508858D01*
X775235Y508747D01*
X775150Y508629D01*
X774848Y508272D01*
X774660Y508077D01*
X774601Y507927D01*
X756296Y489622D01*
X755372Y490004D01*
Y583231D01*
X755595Y583565D01*
X755959Y583716D01*
X757225Y584982D01*
X757910Y586636D01*
Y588426D01*
X757225Y590080D01*
X755959Y591345D01*
X754305Y592031D01*
X752515D01*
X750861Y591345D01*
X749595Y590080D01*
X748910Y588426D01*
Y586636D01*
X749455Y585320D01*
X749254Y584313D01*
X749254Y584312D01*
Y513746D01*
X748254Y513332D01*
X747766Y513821D01*
X746112Y514506D01*
X744321D01*
X742667Y513821D01*
X741402Y512555D01*
X740716Y510901D01*
Y509111D01*
X741402Y507457D01*
X742667Y506191D01*
X744321Y505506D01*
X746112D01*
X747766Y506191D01*
X748254Y506680D01*
X749254Y506266D01*
Y404222D01*
X749254Y404222D01*
X749487Y403052D01*
X750150Y402059D01*
X778256Y373953D01*
X778018Y372778D01*
X776972Y372344D01*
X775706Y371078D01*
X775021Y369425D01*
Y367634D01*
X775706Y365980D01*
X776972Y364715D01*
X778626Y364030D01*
X780416D01*
X782070Y364715D01*
X783336Y365980D01*
X783769Y367026D01*
X784945Y367265D01*
X786941Y365268D01*
Y117875D01*
X776785Y107719D01*
X776642Y107666D01*
X776225Y107280D01*
X776084Y107166D01*
X775949Y107069D01*
X775838Y106999D01*
X775753Y106954D01*
X775700Y106932D01*
X775689Y106928D01*
X775630Y106925D01*
X775600Y106910D01*
X775593Y106909D01*
X775582Y106902D01*
X775381Y106804D01*
X774801D01*
X773147Y106119D01*
X771881Y104853D01*
X771196Y103199D01*
Y101409D01*
X771379Y100968D01*
X770613Y100203D01*
X769895Y100500D01*
X768105D01*
X766451Y99815D01*
X765185Y98549D01*
X764500Y96895D01*
Y95105D01*
X765185Y93451D01*
X766451Y92185D01*
X768105Y91500D01*
X769895D01*
X771549Y92185D01*
X771959Y92596D01*
X772171Y92669D01*
X772184Y92671D01*
X772189Y92675D01*
X772220Y92686D01*
X772265Y92725D01*
X772275Y92731D01*
X772329Y92753D01*
X772420Y92781D01*
X772548Y92810D01*
X772692Y92833D01*
X773158Y92872D01*
X773428Y92877D01*
X773576Y92941D01*
X777877D01*
X777877Y92941D01*
X779048Y93174D01*
X780040Y93837D01*
X795076Y108873D01*
X796000Y108491D01*
Y81000D01*
X732000Y17000D01*
X703216D01*
X702719Y18000D01*
X703271Y19330D01*
Y21121D01*
X702586Y22775D01*
X701320Y24040D01*
X699666Y24725D01*
X697876D01*
X696222Y24040D01*
X694956Y22775D01*
X694271Y21121D01*
Y19330D01*
X694822Y18000D01*
X694326Y17000D01*
X493000Y17000D01*
X446000Y64000D01*
X416000D01*
X369000Y17000D01*
X95000D01*
X19000Y93000D01*
X19000Y384000D01*
X65000Y430000D01*
Y457000D01*
X24000Y498000D01*
Y716000D01*
X87000Y779000D01*
X408944D01*
X443000Y731846D01*
D02*
G37*
G36*
X22133Y465545D02*
X9048Y445000D01*
X22133Y424455D01*
X15000Y415707D01*
X5403Y422356D01*
X5031Y419438D01*
X5000Y422635D01*
X5403Y422356D01*
X7475Y438577D01*
X7942Y445000D01*
X7475Y451423D01*
X5403Y467644D01*
X15000Y474293D01*
X22133Y465545D01*
D02*
G37*
G36*
X814969Y419437D02*
X814725Y416768D01*
X814511Y417297D01*
X814236Y419068D01*
X813950Y421907D01*
X815000Y422635D01*
X814969Y419437D01*
D02*
G37*
G36*
X779866Y104353D02*
X779642Y104121D01*
X779266Y103676D01*
X779113Y103464D01*
X778984Y103259D01*
X778879Y103060D01*
X778798Y102869D01*
X778740Y102684D01*
X778706Y102506D01*
X778696Y102334D01*
X775726Y105304D01*
X775897Y105314D01*
X776076Y105348D01*
X776261Y105406D01*
X776452Y105487D01*
X776651Y105592D01*
X776856Y105721D01*
X777068Y105874D01*
X777287Y106051D01*
X777745Y106475D01*
X779866Y104353D01*
D02*
G37*
G36*
X771271Y97986D02*
X771421Y97884D01*
X771592Y97794D01*
X771786Y97716D01*
X772000Y97650D01*
X772237Y97596D01*
X772495Y97554D01*
X772774Y97524D01*
X773398Y97500D01*
Y94500D01*
X773075Y94494D01*
X772495Y94446D01*
X772237Y94404D01*
X772000Y94350D01*
X771786Y94284D01*
X771592Y94206D01*
X771421Y94116D01*
X771271Y94014D01*
X771142Y93900D01*
Y98100D01*
X771271Y97986D01*
D02*
G37*
G36*
X22132Y50545D02*
X8055Y28441D01*
X7475Y36423D01*
X5403Y52644D01*
X5000Y52365D01*
X5030Y55562D01*
X5403Y52644D01*
X15000Y59293D01*
X22132Y50545D01*
D02*
G37*
G36*
X814969Y55564D02*
X815000Y52365D01*
X813950Y53093D01*
X814236Y55933D01*
X814511Y57704D01*
X814725Y58233D01*
X814969Y55564D01*
D02*
G37*
G36*
X813950Y53093D02*
X813503Y48664D01*
X811945Y28442D01*
X797867Y50545D01*
X805000Y59294D01*
X813950Y53093D01*
D02*
G37*
G36*
X459294Y15000D02*
X453093Y6050D01*
X455931Y5764D01*
X457702Y5489D01*
X458231Y5275D01*
X455563Y5031D01*
X452365Y5000D01*
X453093Y6050D01*
X448662Y6497D01*
X430000Y7935D01*
X411338Y6497D01*
X406907Y6050D01*
X407635Y5000D01*
X404437Y5031D01*
X401769Y5275D01*
X402298Y5489D01*
X404069Y5764D01*
X406907Y6050D01*
X400706Y15000D01*
X409455Y22133D01*
X430000Y9048D01*
X450545Y22133D01*
X459294Y15000D01*
D02*
G37*
G36*
X791559Y8055D02*
X783576Y7475D01*
X767355Y5403D01*
X760706Y15000D01*
X769455Y22133D01*
X791559Y8055D01*
D02*
G37*
G36*
X767635Y5000D02*
X764437Y5031D01*
X767355Y5403D01*
X767635Y5000D01*
D02*
G37*
G36*
X59293Y15000D02*
X53093Y6050D01*
X55931Y5764D01*
X57702Y5489D01*
X58231Y5275D01*
X55563Y5031D01*
X52365Y5000D01*
X53093Y6050D01*
X48662Y6497D01*
X46944Y6629D01*
Y5000D01*
X30818Y7872D01*
X28441Y8055D01*
X50545Y22133D01*
X59293Y15000D01*
D02*
G37*
%LPC*%
G36*
X466895Y728500D02*
X465105D01*
X463451Y727815D01*
X462185Y726549D01*
X461500Y724895D01*
Y723105D01*
X462185Y721451D01*
X463451Y720185D01*
X465105Y719500D01*
X466895D01*
X468549Y720185D01*
X469815Y721451D01*
X470500Y723105D01*
Y724895D01*
X469815Y726549D01*
X468549Y727815D01*
X466895Y728500D01*
D02*
G37*
G36*
X527772Y720597D02*
X525981D01*
X524328Y719912D01*
X523062Y718646D01*
X522377Y716992D01*
Y715202D01*
X523062Y713548D01*
X524328Y712282D01*
X525981Y711597D01*
X527772D01*
X529426Y712282D01*
X530691Y713548D01*
X531376Y715202D01*
Y716992D01*
X530691Y718646D01*
X529426Y719912D01*
X527772Y720597D01*
D02*
G37*
G36*
X557895Y716500D02*
X556105D01*
X554451Y715815D01*
X553185Y714549D01*
X552500Y712895D01*
Y711105D01*
X553185Y709451D01*
X554451Y708185D01*
X556105Y707500D01*
X557895D01*
X559549Y708185D01*
X560815Y709451D01*
X561500Y711105D01*
Y712895D01*
X560815Y714549D01*
X559549Y715815D01*
X557895Y716500D01*
D02*
G37*
G36*
X514899Y713631D02*
X513109D01*
X511455Y712945D01*
X510189Y711680D01*
X509504Y710026D01*
Y708235D01*
X510189Y706581D01*
X511455Y705316D01*
X513109Y704631D01*
X514899D01*
X516553Y705316D01*
X517819Y706581D01*
X518504Y708235D01*
Y710026D01*
X517819Y711680D01*
X516553Y712945D01*
X514899Y713631D01*
D02*
G37*
G36*
X652393Y712300D02*
X650006D01*
X647801Y711387D01*
X646113Y709699D01*
X645200Y707494D01*
Y705107D01*
X646113Y702901D01*
X647801Y701214D01*
X650006Y700300D01*
X652393D01*
X654599Y701214D01*
X656286Y702901D01*
X657200Y705107D01*
Y707494D01*
X656286Y709699D01*
X654599Y711387D01*
X652393Y712300D01*
D02*
G37*
G36*
X632393D02*
X630006D01*
X627801Y711387D01*
X626113Y709699D01*
X625200Y707494D01*
Y705107D01*
X626113Y702901D01*
X627801Y701214D01*
X630006Y700300D01*
X632393D01*
X634599Y701214D01*
X636287Y702901D01*
X637200Y705107D01*
Y707494D01*
X636287Y709699D01*
X634599Y711387D01*
X632393Y712300D01*
D02*
G37*
G36*
X501724Y707624D02*
X499934D01*
X498280Y706938D01*
X497014Y705673D01*
X496329Y704019D01*
Y702228D01*
X497014Y700574D01*
X498280Y699309D01*
X499934Y698624D01*
X501724D01*
X503378Y699309D01*
X504644Y700574D01*
X505329Y702228D01*
Y704019D01*
X504644Y705673D01*
X503378Y706938D01*
X501724Y707624D01*
D02*
G37*
G36*
X489073Y701000D02*
X487283D01*
X485629Y700315D01*
X484363Y699049D01*
X483678Y697395D01*
Y695605D01*
X484363Y693951D01*
X485629Y692685D01*
X487283Y692000D01*
X489073D01*
X490727Y692685D01*
X491993Y693951D01*
X492678Y695605D01*
Y697395D01*
X491993Y699049D01*
X490727Y700315D01*
X489073Y701000D01*
D02*
G37*
G36*
X566895Y700500D02*
X565105D01*
X563451Y699815D01*
X562185Y698549D01*
X561500Y696895D01*
Y695105D01*
X562185Y693451D01*
X563451Y692185D01*
X565105Y691500D01*
X566895D01*
X568549Y692185D01*
X569815Y693451D01*
X570500Y695105D01*
Y696895D01*
X569815Y698549D01*
X568549Y699815D01*
X566895Y700500D01*
D02*
G37*
G36*
X642122Y703300D02*
X640278D01*
X638498Y702823D01*
X636902Y701901D01*
X635599Y700598D01*
X634677Y699002D01*
X634200Y697222D01*
Y695378D01*
X634677Y693598D01*
X635599Y692002D01*
X636902Y690699D01*
X638498Y689777D01*
X640278Y689300D01*
X642122D01*
X643902Y689777D01*
X645498Y690699D01*
X646801Y692002D01*
X647723Y693598D01*
X648200Y695378D01*
Y697222D01*
X647723Y699002D01*
X646801Y700598D01*
X645498Y701901D01*
X643902Y702823D01*
X642122Y703300D01*
D02*
G37*
G36*
X679895Y697500D02*
X678105D01*
X676451Y696815D01*
X675185Y695549D01*
X674500Y693895D01*
Y692105D01*
X675185Y690451D01*
X676451Y689185D01*
X678105Y688500D01*
X678722D01*
X679185Y687549D01*
X678500Y685895D01*
Y684105D01*
X679185Y682451D01*
X680451Y681185D01*
X682105Y680500D01*
X683895D01*
X685549Y681185D01*
X686815Y682451D01*
X687500Y684105D01*
Y685895D01*
X686815Y687549D01*
X685549Y688815D01*
X683895Y689500D01*
X683278D01*
X682815Y690451D01*
X683500Y692105D01*
Y693895D01*
X682815Y695549D01*
X681549Y696815D01*
X679895Y697500D01*
D02*
G37*
G36*
X482529Y682307D02*
X480739D01*
X479085Y681622D01*
X477819Y680356D01*
X477134Y678702D01*
Y676912D01*
X477819Y675258D01*
X479085Y673992D01*
X480739Y673307D01*
X482529D01*
X484183Y673992D01*
X485449Y675258D01*
X486134Y676912D01*
Y678702D01*
X485449Y680356D01*
X484183Y681622D01*
X482529Y682307D01*
D02*
G37*
G36*
X527895Y674500D02*
X526105D01*
X524451Y673815D01*
X523185Y672549D01*
X522500Y670895D01*
Y669105D01*
X523185Y667451D01*
X524451Y666185D01*
X526105Y665500D01*
X527895D01*
X529549Y666185D01*
X530815Y667451D01*
X531500Y669105D01*
Y670895D01*
X530815Y672549D01*
X529549Y673815D01*
X527895Y674500D01*
D02*
G37*
G36*
X515070Y666532D02*
X513280D01*
X511626Y665847D01*
X510360Y664581D01*
X509675Y662927D01*
Y661137D01*
X510360Y659483D01*
X511626Y658217D01*
X513280Y657532D01*
X515070D01*
X516724Y658217D01*
X517990Y659483D01*
X518675Y661137D01*
Y662927D01*
X517990Y664581D01*
X516724Y665847D01*
X515070Y666532D01*
D02*
G37*
G36*
X606394Y664300D02*
X604007D01*
X601801Y663387D01*
X600113Y661699D01*
X599200Y659493D01*
Y657106D01*
X600113Y654901D01*
X601801Y653214D01*
X604007Y652300D01*
X606394D01*
X608599Y653214D01*
X610287Y654901D01*
X611200Y657106D01*
Y659493D01*
X610287Y661699D01*
X608599Y663387D01*
X606394Y664300D01*
D02*
G37*
G36*
X586394D02*
X584007D01*
X581801Y663387D01*
X580113Y661699D01*
X579200Y659493D01*
Y657106D01*
X580113Y654901D01*
X581801Y653214D01*
X584007Y652300D01*
X586394D01*
X588599Y653214D01*
X590287Y654901D01*
X591200Y657106D01*
Y659493D01*
X590287Y661699D01*
X588599Y663387D01*
X586394Y664300D01*
D02*
G37*
G36*
X501951Y658282D02*
X500161D01*
X498507Y657597D01*
X497241Y656331D01*
X496556Y654677D01*
Y652887D01*
X497241Y651233D01*
X498507Y649967D01*
X500161Y649282D01*
X501951D01*
X503605Y649967D01*
X504871Y651233D01*
X505556Y652887D01*
Y654677D01*
X504871Y656331D01*
X503605Y657597D01*
X501951Y658282D01*
D02*
G37*
G36*
X596122Y655300D02*
X594278D01*
X592498Y654823D01*
X590902Y653901D01*
X589599Y652598D01*
X588677Y651002D01*
X588200Y649222D01*
Y647378D01*
X588677Y645598D01*
X589599Y644002D01*
X590902Y642699D01*
X592498Y641777D01*
X594278Y641300D01*
X596122D01*
X597902Y641777D01*
X599498Y642699D01*
X600801Y644002D01*
X601723Y645598D01*
X602200Y647378D01*
Y649222D01*
X601723Y651002D01*
X600801Y652598D01*
X599498Y653901D01*
X597902Y654823D01*
X596122Y655300D01*
D02*
G37*
G36*
X488901Y650000D02*
X487111D01*
X485457Y649315D01*
X484191Y648049D01*
X483506Y646395D01*
Y644605D01*
X484191Y642951D01*
X485457Y641685D01*
X487111Y641000D01*
X488901D01*
X490555Y641685D01*
X491821Y642951D01*
X492506Y644605D01*
Y646395D01*
X491821Y648049D01*
X490555Y649315D01*
X488901Y650000D01*
D02*
G37*
G36*
X690217Y648958D02*
X688427D01*
X686773Y648273D01*
X685507Y647007D01*
X684822Y645353D01*
Y643563D01*
X685507Y641909D01*
X686773Y640643D01*
X688427Y639958D01*
X690217D01*
X691871Y640643D01*
X693137Y641909D01*
X693822Y643563D01*
Y645353D01*
X693137Y647007D01*
X691871Y648273D01*
X690217Y648958D01*
D02*
G37*
G36*
X542283Y641584D02*
X540493D01*
X538839Y640899D01*
X537573Y639633D01*
X536888Y637979D01*
Y636189D01*
X537573Y634535D01*
X538839Y633269D01*
X540493Y632584D01*
X542283D01*
X543937Y633269D01*
X545203Y634535D01*
X545888Y636189D01*
Y637979D01*
X545203Y639633D01*
X543937Y640899D01*
X542283Y641584D01*
D02*
G37*
G36*
X661576Y638894D02*
X659786D01*
X658132Y638209D01*
X656866Y636943D01*
X656181Y635289D01*
Y633499D01*
X656866Y631845D01*
X658132Y630579D01*
X659786Y629894D01*
X661576D01*
X663230Y630579D01*
X664496Y631845D01*
X665181Y633499D01*
Y635289D01*
X664496Y636943D01*
X663230Y638209D01*
X661576Y638894D01*
D02*
G37*
G36*
X455895Y631500D02*
X454105D01*
X452451Y630815D01*
X451185Y629549D01*
X450500Y627895D01*
Y626105D01*
X451185Y624451D01*
X452451Y623185D01*
X454105Y622500D01*
X455895D01*
X457549Y623185D01*
X458815Y624451D01*
X459500Y626105D01*
Y627895D01*
X458815Y629549D01*
X457549Y630815D01*
X455895Y631500D01*
D02*
G37*
G36*
X546735Y628204D02*
X544945D01*
X543291Y627519D01*
X542025Y626253D01*
X541340Y624599D01*
Y622809D01*
X542025Y621155D01*
X543291Y619889D01*
X544945Y619204D01*
X546735D01*
X548389Y619889D01*
X549655Y621155D01*
X550340Y622809D01*
Y624599D01*
X549655Y626253D01*
X548389Y627519D01*
X546735Y628204D01*
D02*
G37*
G36*
X482461Y625533D02*
X480671D01*
X479017Y624848D01*
X477751Y623582D01*
X477066Y621928D01*
Y620138D01*
X477751Y618484D01*
X479017Y617218D01*
X480671Y616533D01*
X482461D01*
X484115Y617218D01*
X485381Y618484D01*
X486066Y620138D01*
Y621928D01*
X485381Y623582D01*
X484115Y624848D01*
X482461Y625533D01*
D02*
G37*
G36*
X652393Y602300D02*
X650006D01*
X647801Y601387D01*
X646113Y599699D01*
X645200Y597494D01*
Y595107D01*
X646113Y592901D01*
X647801Y591213D01*
X650006Y590300D01*
X652393D01*
X654599Y591213D01*
X656286Y592901D01*
X657200Y595107D01*
Y597494D01*
X656286Y599699D01*
X654599Y601387D01*
X652393Y602300D01*
D02*
G37*
G36*
X632393D02*
X630006D01*
X627801Y601387D01*
X626113Y599699D01*
X625200Y597494D01*
Y595107D01*
X626113Y592901D01*
X627801Y591213D01*
X630006Y590300D01*
X632393D01*
X634599Y591213D01*
X636287Y592901D01*
X637200Y595107D01*
Y597494D01*
X636287Y599699D01*
X634599Y601387D01*
X632393Y602300D01*
D02*
G37*
G36*
X462402Y589820D02*
X460611D01*
X458957Y589135D01*
X457691Y587869D01*
X457006Y586216D01*
Y584425D01*
X457691Y582771D01*
X458957Y581506D01*
X460611Y580820D01*
X462402D01*
X464055Y581506D01*
X465321Y582771D01*
X466006Y584425D01*
Y586216D01*
X465321Y587869D01*
X464055Y589135D01*
X462402Y589820D01*
D02*
G37*
G36*
X642122Y593300D02*
X640278D01*
X638498Y592823D01*
X636902Y591901D01*
X635599Y590598D01*
X634677Y589002D01*
X634200Y587222D01*
Y585378D01*
X634677Y583598D01*
X635599Y582002D01*
X636902Y580699D01*
X638498Y579777D01*
X640278Y579300D01*
X642122D01*
X643902Y579777D01*
X645498Y580699D01*
X646801Y582002D01*
X647723Y583598D01*
X648200Y585378D01*
Y587222D01*
X647723Y589002D01*
X646801Y590598D01*
X645498Y591901D01*
X643902Y592823D01*
X642122Y593300D01*
D02*
G37*
G36*
X575895Y576500D02*
X574105D01*
X572451Y575815D01*
X571185Y574549D01*
X570500Y572895D01*
Y571105D01*
X571185Y569451D01*
X572451Y568185D01*
X574105Y567500D01*
X575895D01*
X577549Y568185D01*
X578815Y569451D01*
X579500Y571105D01*
Y572895D01*
X578815Y574549D01*
X577549Y575815D01*
X575895Y576500D01*
D02*
G37*
G36*
X527895Y573500D02*
X526105D01*
X524451Y572815D01*
X523185Y571549D01*
X522500Y569895D01*
Y568105D01*
X523185Y566451D01*
X524451Y565185D01*
X526105Y564500D01*
X527895D01*
X529549Y565185D01*
X530815Y566451D01*
X531500Y568105D01*
Y569895D01*
X530815Y571549D01*
X529549Y572815D01*
X527895Y573500D01*
D02*
G37*
G36*
X515012Y566104D02*
X513222D01*
X511567Y565419D01*
X510302Y564153D01*
X509617Y562499D01*
Y560709D01*
X510302Y559055D01*
X511567Y557789D01*
X513222Y557104D01*
X515012D01*
X516666Y557789D01*
X517932Y559055D01*
X518617Y560709D01*
Y562499D01*
X517932Y564153D01*
X516666Y565419D01*
X515012Y566104D01*
D02*
G37*
G36*
X501735Y559114D02*
X499945D01*
X498291Y558429D01*
X497025Y557163D01*
X496340Y555509D01*
Y553719D01*
X497025Y552065D01*
X498291Y550799D01*
X499945Y550114D01*
X501735D01*
X503389Y550799D01*
X504655Y552065D01*
X505340Y553719D01*
Y555509D01*
X504655Y557163D01*
X503389Y558429D01*
X501735Y559114D01*
D02*
G37*
G36*
X660895Y554500D02*
X659105D01*
X657451Y553815D01*
X656185Y552549D01*
X655500Y550895D01*
Y549105D01*
X656185Y547451D01*
X657451Y546185D01*
X659105Y545500D01*
X660895D01*
X662549Y546185D01*
X663815Y547451D01*
X664500Y549105D01*
Y550895D01*
X663815Y552549D01*
X662549Y553815D01*
X660895Y554500D01*
D02*
G37*
G36*
X606394Y554300D02*
X604007D01*
X601801Y553386D01*
X600113Y551699D01*
X599200Y549493D01*
Y547107D01*
X600113Y544901D01*
X601801Y543213D01*
X604007Y542300D01*
X606394D01*
X608599Y543213D01*
X610287Y544901D01*
X611200Y547107D01*
Y549493D01*
X610287Y551699D01*
X608599Y553386D01*
X606394Y554300D01*
D02*
G37*
G36*
X586394D02*
X584007D01*
X581801Y553386D01*
X580113Y551699D01*
X579200Y549493D01*
Y547107D01*
X580113Y544901D01*
X581801Y543213D01*
X584007Y542300D01*
X586394D01*
X588599Y543213D01*
X590287Y544901D01*
X591200Y547107D01*
Y549493D01*
X590287Y551699D01*
X588599Y553386D01*
X586394Y554300D01*
D02*
G37*
G36*
X488549Y551267D02*
X486758D01*
X485105Y550582D01*
X483839Y549316D01*
X483154Y547662D01*
Y545872D01*
X483839Y544218D01*
X485105Y542952D01*
X486758Y542267D01*
X488549D01*
X490203Y542952D01*
X491469Y544218D01*
X492154Y545872D01*
Y547662D01*
X491469Y549316D01*
X490203Y550582D01*
X488549Y551267D01*
D02*
G37*
G36*
X596122Y545300D02*
X594278D01*
X592498Y544823D01*
X590902Y543901D01*
X589599Y542598D01*
X588677Y541002D01*
X588200Y539222D01*
Y537378D01*
X588677Y535598D01*
X589599Y534002D01*
X590902Y532699D01*
X592498Y531777D01*
X594278Y531300D01*
X596122D01*
X597902Y531777D01*
X599498Y532699D01*
X600801Y534002D01*
X601723Y535598D01*
X602200Y537378D01*
Y539222D01*
X601723Y541002D01*
X600801Y542598D01*
X599498Y543901D01*
X597902Y544823D01*
X596122Y545300D01*
D02*
G37*
G36*
X482371Y525244D02*
X480581D01*
X478927Y524559D01*
X477661Y523293D01*
X476976Y521640D01*
Y519849D01*
X477661Y518195D01*
X478927Y516930D01*
X480581Y516245D01*
X482371D01*
X484025Y516930D01*
X485291Y518195D01*
X485976Y519849D01*
Y521640D01*
X485291Y523293D01*
X484025Y524559D01*
X482371Y525244D01*
D02*
G37*
G36*
X527881Y514786D02*
X526091D01*
X524437Y514101D01*
X523171Y512835D01*
X522486Y511181D01*
Y509391D01*
X523171Y507737D01*
X524437Y506471D01*
X526091Y505786D01*
X527881D01*
X529535Y506471D01*
X530801Y507737D01*
X531486Y509391D01*
Y511181D01*
X530801Y512835D01*
X529535Y514101D01*
X527881Y514786D01*
D02*
G37*
G36*
X514888Y507699D02*
X513097D01*
X511443Y507014D01*
X510178Y505748D01*
X509493Y504094D01*
Y502304D01*
X510178Y500650D01*
X511443Y499384D01*
X513097Y498699D01*
X514888D01*
X516542Y499384D01*
X517808Y500650D01*
X518493Y502304D01*
Y504094D01*
X517808Y505748D01*
X516542Y507014D01*
X514888Y507699D01*
D02*
G37*
G36*
X502235Y502228D02*
X500445D01*
X498791Y501543D01*
X497525Y500277D01*
X496840Y498624D01*
Y496833D01*
X497525Y495179D01*
X498791Y493913D01*
X500445Y493228D01*
X502235D01*
X503889Y493913D01*
X505155Y495179D01*
X505840Y496833D01*
Y498624D01*
X505155Y500277D01*
X503889Y501543D01*
X502235Y502228D01*
D02*
G37*
G36*
X540735Y499104D02*
X538945D01*
X537291Y498419D01*
X536025Y497153D01*
X535340Y495499D01*
Y493709D01*
X536025Y492055D01*
X537291Y490789D01*
X538945Y490104D01*
X540735D01*
X542389Y490789D01*
X543655Y492055D01*
X544340Y493709D01*
Y495499D01*
X543655Y497153D01*
X542389Y498419D01*
X540735Y499104D01*
D02*
G37*
G36*
X488575Y495840D02*
X486785D01*
X485131Y495155D01*
X483865Y493889D01*
X483180Y492235D01*
Y490445D01*
X483865Y488791D01*
X485131Y487525D01*
X486785Y486840D01*
X488575D01*
X490229Y487525D01*
X491495Y488791D01*
X492180Y490445D01*
Y492235D01*
X491495Y493889D01*
X490229Y495155D01*
X488575Y495840D01*
D02*
G37*
G36*
X576895Y494500D02*
X575105D01*
X573451Y493815D01*
X572185Y492549D01*
X571500Y490895D01*
Y489105D01*
X572185Y487451D01*
X573451Y486185D01*
X575105Y485500D01*
X576895D01*
X578549Y486185D01*
X579815Y487451D01*
X580500Y489105D01*
Y490895D01*
X579815Y492549D01*
X578549Y493815D01*
X576895Y494500D01*
D02*
G37*
G36*
X652393Y492300D02*
X650006D01*
X647801Y491386D01*
X646113Y489699D01*
X645200Y487494D01*
Y485107D01*
X646113Y482901D01*
X647801Y481213D01*
X650006Y480300D01*
X652393D01*
X654599Y481213D01*
X656286Y482901D01*
X657200Y485107D01*
Y487494D01*
X656286Y489699D01*
X654599Y491386D01*
X652393Y492300D01*
D02*
G37*
G36*
X632393D02*
X630006D01*
X627801Y491386D01*
X626113Y489699D01*
X625200Y487494D01*
Y485107D01*
X626113Y482901D01*
X627801Y481213D01*
X630006Y480300D01*
X632393D01*
X634599Y481213D01*
X636287Y482901D01*
X637200Y485107D01*
Y487494D01*
X636287Y489699D01*
X634599Y491386D01*
X632393Y492300D01*
D02*
G37*
G36*
X642122Y483300D02*
X640278D01*
X638498Y482823D01*
X636902Y481901D01*
X635599Y480598D01*
X634677Y479002D01*
X634200Y477222D01*
Y475378D01*
X634677Y473598D01*
X635599Y472002D01*
X636902Y470699D01*
X638498Y469777D01*
X640278Y469300D01*
X642122D01*
X643902Y469777D01*
X645498Y470699D01*
X646801Y472002D01*
X647723Y473598D01*
X648200Y475378D01*
Y477222D01*
X647723Y479002D01*
X646801Y480598D01*
X645498Y481901D01*
X643902Y482823D01*
X642122Y483300D01*
D02*
G37*
G36*
X455895Y475500D02*
X454105D01*
X452451Y474815D01*
X451185Y473549D01*
X450500Y471895D01*
Y470105D01*
X451185Y468451D01*
X452451Y467185D01*
X454105Y466500D01*
X455895D01*
X457549Y467185D01*
X458815Y468451D01*
X459500Y470105D01*
Y471895D01*
X458815Y473549D01*
X457549Y474815D01*
X455895Y475500D01*
D02*
G37*
G36*
X482366Y468955D02*
X480576D01*
X478922Y468270D01*
X477656Y467004D01*
X476971Y465350D01*
Y463560D01*
X477656Y461906D01*
X478922Y460640D01*
X480576Y459955D01*
X482366D01*
X484020Y460640D01*
X485286Y461906D01*
X485971Y463560D01*
Y465350D01*
X485286Y467004D01*
X484020Y468270D01*
X482366Y468955D01*
D02*
G37*
G36*
X557895Y465015D02*
X556105D01*
X554451Y464330D01*
X553185Y463064D01*
X552500Y461410D01*
Y459620D01*
X553185Y457966D01*
X554451Y456700D01*
X556105Y456015D01*
X557895D01*
X559549Y456700D01*
X560815Y457966D01*
X561500Y459620D01*
Y461410D01*
X560815Y463064D01*
X559549Y464330D01*
X557895Y465015D01*
D02*
G37*
G36*
X669895Y458500D02*
X668105D01*
X666451Y457815D01*
X665185Y456549D01*
X664500Y454895D01*
Y453105D01*
X665185Y451451D01*
X666451Y450185D01*
X668105Y449500D01*
X669895D01*
X671549Y450185D01*
X672815Y451451D01*
X673500Y453105D01*
Y454895D01*
X672815Y456549D01*
X671549Y457815D01*
X669895Y458500D01*
D02*
G37*
G36*
X565743Y457823D02*
X563952D01*
X562298Y457138D01*
X561033Y455872D01*
X560348Y454219D01*
Y452428D01*
X561033Y450774D01*
X562298Y449509D01*
X563952Y448824D01*
X565743D01*
X567397Y449509D01*
X568662Y450774D01*
X569347Y452428D01*
Y454219D01*
X568662Y455872D01*
X567397Y457138D01*
X565743Y457823D01*
D02*
G37*
G36*
X606394Y444300D02*
X604007D01*
X601801Y443386D01*
X600113Y441699D01*
X599200Y439493D01*
Y437107D01*
X600113Y434901D01*
X601801Y433213D01*
X604007Y432300D01*
X606394D01*
X608599Y433213D01*
X610287Y434901D01*
X611200Y437107D01*
Y439493D01*
X610287Y441699D01*
X608599Y443386D01*
X606394Y444300D01*
D02*
G37*
G36*
X586394D02*
X584007D01*
X581801Y443386D01*
X580113Y441699D01*
X579200Y439493D01*
Y437107D01*
X580113Y434901D01*
X581801Y433213D01*
X584007Y432300D01*
X586394D01*
X588599Y433213D01*
X590287Y434901D01*
X591200Y437107D01*
Y439493D01*
X590287Y441699D01*
X588599Y443386D01*
X586394Y444300D01*
D02*
G37*
G36*
X596122Y435300D02*
X594278D01*
X592498Y434823D01*
X590902Y433901D01*
X589599Y432598D01*
X588677Y431002D01*
X588200Y429221D01*
Y427378D01*
X588677Y425598D01*
X589599Y424002D01*
X590902Y422699D01*
X592498Y421777D01*
X594278Y421300D01*
X596122D01*
X597902Y421777D01*
X599498Y422699D01*
X600801Y424002D01*
X601723Y425598D01*
X602200Y427378D01*
Y429221D01*
X601723Y431002D01*
X600801Y432598D01*
X599498Y433901D01*
X597902Y434823D01*
X596122Y435300D01*
D02*
G37*
G36*
X467895Y417500D02*
X466105D01*
X464451Y416815D01*
X463185Y415549D01*
X462500Y413895D01*
Y412105D01*
X463185Y410451D01*
X464451Y409185D01*
X466105Y408500D01*
X467895D01*
X469549Y409185D01*
X470815Y410451D01*
X471500Y412105D01*
Y413895D01*
X470815Y415549D01*
X469549Y416815D01*
X467895Y417500D01*
D02*
G37*
G36*
X661713Y414192D02*
X659923D01*
X658269Y413507D01*
X657003Y412241D01*
X656318Y410587D01*
Y408797D01*
X657003Y407143D01*
X658269Y405877D01*
X659923Y405192D01*
X661713D01*
X663367Y405877D01*
X664633Y407143D01*
X665318Y408797D01*
Y410587D01*
X664633Y412241D01*
X663367Y413507D01*
X661713Y414192D01*
D02*
G37*
G36*
X543964Y419398D02*
X542174D01*
X540520Y418713D01*
X539254Y417447D01*
X538569Y415793D01*
Y414003D01*
X539254Y412349D01*
X540520Y411083D01*
X541809Y410549D01*
X542087Y409556D01*
X542075Y409439D01*
X541185Y408549D01*
X540500Y406895D01*
Y405105D01*
X541185Y403451D01*
X542451Y402185D01*
X544105Y401500D01*
X545895D01*
X547549Y402185D01*
X548815Y403451D01*
X549500Y405105D01*
Y406895D01*
X548815Y408549D01*
X547549Y409815D01*
X546260Y410349D01*
X545982Y411342D01*
X545994Y411459D01*
X546884Y412349D01*
X547569Y414003D01*
Y415793D01*
X546884Y417447D01*
X545618Y418713D01*
X543964Y419398D01*
D02*
G37*
G36*
X527945Y408360D02*
X526155D01*
X524501Y407675D01*
X523235Y406409D01*
X522550Y404755D01*
Y402965D01*
X523235Y401311D01*
X524501Y400045D01*
X526155Y399360D01*
X527945D01*
X529599Y400045D01*
X530865Y401311D01*
X531550Y402965D01*
Y404755D01*
X530865Y406409D01*
X529599Y407675D01*
X527945Y408360D01*
D02*
G37*
G36*
X514924Y402054D02*
X513134D01*
X511480Y401368D01*
X510214Y400103D01*
X509529Y398449D01*
Y396659D01*
X510214Y395005D01*
X511480Y393739D01*
X513134Y393054D01*
X514924D01*
X516578Y393739D01*
X517844Y395005D01*
X518529Y396659D01*
Y398449D01*
X517844Y400103D01*
X516578Y401368D01*
X514924Y402054D01*
D02*
G37*
G36*
X502108Y400022D02*
X500318D01*
X498664Y399337D01*
X497398Y398071D01*
X496713Y396417D01*
Y394627D01*
X497398Y392973D01*
X498664Y391707D01*
X500318Y391022D01*
X502108D01*
X503762Y391707D01*
X505028Y392973D01*
X505713Y394627D01*
Y396417D01*
X505028Y398071D01*
X503762Y399337D01*
X502108Y400022D01*
D02*
G37*
G36*
X573658Y398500D02*
X571868D01*
X570214Y397815D01*
X568948Y396549D01*
X568263Y394895D01*
Y393105D01*
X568948Y391451D01*
X570214Y390185D01*
X571868Y389500D01*
X573658D01*
X575312Y390185D01*
X576578Y391451D01*
X577263Y393105D01*
Y394895D01*
X576578Y396549D01*
X575312Y397815D01*
X573658Y398500D01*
D02*
G37*
G36*
X488575Y390620D02*
X486785D01*
X485131Y389934D01*
X483865Y388669D01*
X483180Y387015D01*
Y385224D01*
X483865Y383571D01*
X485131Y382305D01*
X486785Y381619D01*
X488575D01*
X490229Y382305D01*
X491495Y383571D01*
X492180Y385224D01*
Y387015D01*
X491495Y388669D01*
X490229Y389934D01*
X488575Y390620D01*
D02*
G37*
G36*
X576895Y385500D02*
X575105D01*
X573451Y384815D01*
X572185Y383549D01*
X571500Y381895D01*
Y380105D01*
X572185Y378451D01*
X573451Y377185D01*
X575105Y376500D01*
X576895D01*
X578549Y377185D01*
X579815Y378451D01*
X580500Y380105D01*
Y381895D01*
X579815Y383549D01*
X578549Y384815D01*
X576895Y385500D01*
D02*
G37*
G36*
X652393Y382300D02*
X650006D01*
X647801Y381387D01*
X646113Y379699D01*
X645200Y377494D01*
Y375107D01*
X646113Y372901D01*
X647801Y371213D01*
X650006Y370300D01*
X652393D01*
X654599Y371213D01*
X656286Y372901D01*
X657200Y375107D01*
Y377494D01*
X656286Y379699D01*
X654599Y381387D01*
X652393Y382300D01*
D02*
G37*
G36*
X632393D02*
X630006D01*
X627801Y381387D01*
X626113Y379699D01*
X625200Y377494D01*
Y375107D01*
X626113Y372901D01*
X627801Y371213D01*
X630006Y370300D01*
X632393D01*
X634599Y371213D01*
X636287Y372901D01*
X637200Y375107D01*
Y377494D01*
X636287Y379699D01*
X634599Y381387D01*
X632393Y382300D01*
D02*
G37*
G36*
X642122Y373300D02*
X640278D01*
X638498Y372823D01*
X636902Y371901D01*
X635599Y370598D01*
X634677Y369002D01*
X634200Y367222D01*
Y365378D01*
X634677Y363598D01*
X635599Y362002D01*
X636902Y360699D01*
X638498Y359777D01*
X640278Y359300D01*
X642122D01*
X643902Y359777D01*
X645498Y360699D01*
X646801Y362002D01*
X647723Y363598D01*
X648200Y365378D01*
Y367222D01*
X647723Y369002D01*
X646801Y370598D01*
X645498Y371901D01*
X643902Y372823D01*
X642122Y373300D01*
D02*
G37*
G36*
X482473Y367776D02*
X480683D01*
X479029Y367091D01*
X477763Y365825D01*
X477078Y364171D01*
Y362381D01*
X477763Y360727D01*
X479029Y359461D01*
X480683Y358776D01*
X482473D01*
X484127Y359461D01*
X485393Y360727D01*
X486078Y362381D01*
Y364171D01*
X485393Y365825D01*
X484127Y367091D01*
X482473Y367776D01*
D02*
G37*
G36*
X527895Y360500D02*
X526105D01*
X524451Y359815D01*
X523185Y358549D01*
X522500Y356895D01*
Y355105D01*
X523185Y353451D01*
X524451Y352185D01*
X526105Y351500D01*
X527895D01*
X529549Y352185D01*
X530815Y353451D01*
X531500Y355105D01*
Y356895D01*
X530815Y358549D01*
X529549Y359815D01*
X527895Y360500D01*
D02*
G37*
G36*
X514895Y350500D02*
X513105D01*
X511451Y349815D01*
X510185Y348549D01*
X509500Y346895D01*
Y345105D01*
X510185Y343451D01*
X511451Y342185D01*
X513105Y341500D01*
X514895D01*
X516549Y342185D01*
X517815Y343451D01*
X518500Y345105D01*
Y346895D01*
X517815Y348549D01*
X516549Y349815D01*
X514895Y350500D01*
D02*
G37*
G36*
X501809Y342054D02*
X500019D01*
X498365Y341369D01*
X497099Y340103D01*
X496414Y338449D01*
Y336659D01*
X497099Y335005D01*
X498365Y333739D01*
X500019Y333054D01*
X501809D01*
X503463Y333739D01*
X504729Y335005D01*
X505414Y336659D01*
Y338449D01*
X504729Y340103D01*
X503463Y341369D01*
X501809Y342054D01*
D02*
G37*
G36*
X488575Y335554D02*
X486785D01*
X485131Y334869D01*
X483865Y333603D01*
X483180Y331949D01*
Y330159D01*
X483865Y328505D01*
X485131Y327239D01*
X486785Y326554D01*
X488575D01*
X490229Y327239D01*
X491495Y328505D01*
X492180Y330159D01*
Y331949D01*
X491495Y333603D01*
X490229Y334869D01*
X488575Y335554D01*
D02*
G37*
G36*
X660895Y335500D02*
X659105D01*
X657451Y334815D01*
X656185Y333549D01*
X655500Y331895D01*
Y330105D01*
X656185Y328451D01*
X657451Y327185D01*
X659105Y326500D01*
X660895D01*
X662549Y327185D01*
X663815Y328451D01*
X664500Y330105D01*
Y331895D01*
X663815Y333549D01*
X662549Y334815D01*
X660895Y335500D01*
D02*
G37*
G36*
X606394Y334300D02*
X604007D01*
X601801Y333387D01*
X600113Y331699D01*
X599200Y329493D01*
Y327107D01*
X600113Y324901D01*
X601801Y323214D01*
X604007Y322300D01*
X606394D01*
X608599Y323214D01*
X610287Y324901D01*
X611200Y327107D01*
Y329493D01*
X610287Y331699D01*
X608599Y333387D01*
X606394Y334300D01*
D02*
G37*
G36*
X586394D02*
X584007D01*
X581801Y333387D01*
X580113Y331699D01*
X579200Y329493D01*
Y327107D01*
X580113Y324901D01*
X581801Y323214D01*
X584007Y322300D01*
X586394D01*
X588599Y323214D01*
X590287Y324901D01*
X591200Y327107D01*
Y329493D01*
X590287Y331699D01*
X588599Y333387D01*
X586394Y334300D01*
D02*
G37*
G36*
X551995Y320629D02*
X550205D01*
X548551Y319944D01*
X547285Y318678D01*
X546600Y317024D01*
Y315234D01*
X547285Y313580D01*
X548551Y312314D01*
X550205Y311629D01*
X551995D01*
X553649Y312314D01*
X554915Y313580D01*
X555600Y315234D01*
Y317024D01*
X554915Y318678D01*
X553649Y319944D01*
X551995Y320629D01*
D02*
G37*
G36*
X453895Y320500D02*
X452105D01*
X450451Y319815D01*
X449185Y318549D01*
X448500Y316895D01*
Y315105D01*
X449185Y313451D01*
X450451Y312185D01*
X452105Y311500D01*
X453895D01*
X455549Y312185D01*
X456815Y313451D01*
X457500Y315105D01*
Y316895D01*
X456815Y318549D01*
X455549Y319815D01*
X453895Y320500D01*
D02*
G37*
G36*
X596122Y325300D02*
X594278D01*
X592498Y324823D01*
X590902Y323901D01*
X589599Y322598D01*
X588677Y321002D01*
X588200Y319222D01*
Y317378D01*
X588677Y315598D01*
X589599Y314002D01*
X590902Y312699D01*
X592498Y311777D01*
X594278Y311300D01*
X596122D01*
X597902Y311777D01*
X599498Y312699D01*
X600801Y314002D01*
X601723Y315598D01*
X602200Y317378D01*
Y319222D01*
X601723Y321002D01*
X600801Y322598D01*
X599498Y323901D01*
X597902Y324823D01*
X596122Y325300D01*
D02*
G37*
G36*
X489433Y309256D02*
X487643D01*
X485989Y308571D01*
X484723Y307305D01*
X484038Y305651D01*
Y303861D01*
X484723Y302207D01*
X485989Y300941D01*
X487643Y300256D01*
X489433D01*
X491087Y300941D01*
X492353Y302207D01*
X493038Y303861D01*
Y305651D01*
X492353Y307305D01*
X491087Y308571D01*
X489433Y309256D01*
D02*
G37*
G36*
X530895Y300500D02*
X529105D01*
X527451Y299815D01*
X526185Y298549D01*
X525500Y296895D01*
Y295105D01*
X526185Y293451D01*
X527451Y292185D01*
X529105Y291500D01*
X530895D01*
X532549Y292185D01*
X533815Y293451D01*
X534500Y295105D01*
Y296895D01*
X533815Y298549D01*
X532549Y299815D01*
X530895Y300500D01*
D02*
G37*
G36*
X453895Y264500D02*
X452105D01*
X450451Y263815D01*
X449185Y262549D01*
X448500Y260895D01*
Y259105D01*
X449185Y257451D01*
X450451Y256185D01*
X452105Y255500D01*
X453895D01*
X455549Y256185D01*
X456815Y257451D01*
X457500Y259105D01*
Y260895D01*
X456815Y262549D01*
X455549Y263815D01*
X453895Y264500D01*
D02*
G37*
G36*
X389895Y210500D02*
X388105D01*
X386451Y209815D01*
X385185Y208549D01*
X384500Y206895D01*
Y205105D01*
X385185Y203451D01*
X386451Y202185D01*
X388105Y201500D01*
X389895D01*
X391549Y202185D01*
X392815Y203451D01*
X393500Y205105D01*
Y206895D01*
X392815Y208549D01*
X391549Y209815D01*
X389895Y210500D01*
D02*
G37*
G36*
X739942Y745883D02*
X738152D01*
X736498Y745198D01*
X735232Y743932D01*
X734547Y742278D01*
Y740488D01*
X735232Y738834D01*
X736498Y737568D01*
X738152Y736883D01*
X739942D01*
X741596Y737568D01*
X742862Y738834D01*
X743547Y740488D01*
Y742278D01*
X742862Y743932D01*
X741596Y745198D01*
X739942Y745883D01*
D02*
G37*
G36*
X329895Y695500D02*
X328105D01*
X326451Y694815D01*
X325185Y693549D01*
X324500Y691895D01*
Y690105D01*
X325185Y688451D01*
X326451Y687185D01*
X328105Y686500D01*
X329895D01*
X331549Y687185D01*
X332815Y688451D01*
X333500Y690105D01*
Y691895D01*
X332815Y693549D01*
X331549Y694815D01*
X329895Y695500D01*
D02*
G37*
G36*
X237895Y694500D02*
X236105D01*
X234451Y693815D01*
X233185Y692549D01*
X232500Y690895D01*
Y689105D01*
X233185Y687451D01*
X234451Y686185D01*
X236105Y685500D01*
X237895D01*
X239549Y686185D01*
X240815Y687451D01*
X241500Y689105D01*
Y690895D01*
X240815Y692549D01*
X239549Y693815D01*
X237895Y694500D01*
D02*
G37*
G36*
X144895D02*
X143105D01*
X141451Y693815D01*
X140185Y692549D01*
X139500Y690895D01*
Y689105D01*
X140185Y687451D01*
X141451Y686185D01*
X143105Y685500D01*
X144895D01*
X146549Y686185D01*
X147815Y687451D01*
X148500Y689105D01*
Y690895D01*
X147815Y692549D01*
X146549Y693815D01*
X144895Y694500D01*
D02*
G37*
G36*
X411969Y686057D02*
X410179D01*
X408525Y685372D01*
X407259Y684106D01*
X406881Y683192D01*
X405650Y682811D01*
X405546Y682881D01*
X403400Y683308D01*
X384400D01*
X382254Y682881D01*
X380435Y681665D01*
X379219Y679846D01*
X378792Y677700D01*
X379219Y675554D01*
X380435Y673735D01*
X382254Y672519D01*
X384400Y672092D01*
X403400D01*
X405546Y672519D01*
X407365Y673735D01*
X408581Y675554D01*
X408825Y676781D01*
X409707Y677253D01*
X410179Y677057D01*
X411969D01*
X413623Y677742D01*
X414889Y679008D01*
X415574Y680662D01*
Y682452D01*
X414889Y684106D01*
X413623Y685372D01*
X411969Y686057D01*
D02*
G37*
G36*
X750895Y697500D02*
X749105D01*
X747451Y696815D01*
X746185Y695549D01*
X745500Y693895D01*
Y692105D01*
X746185Y690451D01*
X746983Y689653D01*
X747348Y689000D01*
X746983Y688347D01*
X746185Y687549D01*
X745500Y685895D01*
Y684105D01*
X746185Y682451D01*
X747451Y681185D01*
X749105Y680500D01*
X750895D01*
X752549Y681185D01*
X753815Y682451D01*
X754500Y684105D01*
Y685895D01*
X753815Y687549D01*
X753017Y688347D01*
X752652Y689000D01*
X753017Y689653D01*
X753815Y690451D01*
X754500Y692105D01*
Y693895D01*
X753815Y695549D01*
X752549Y696815D01*
X750895Y697500D01*
D02*
G37*
G36*
X310100Y683308D02*
X291100D01*
X288954Y682881D01*
X287135Y681665D01*
X285919Y679846D01*
X285492Y677700D01*
X285919Y675554D01*
X287135Y673735D01*
X288954Y672519D01*
X291100Y672092D01*
X310100D01*
X312246Y672519D01*
X314065Y673735D01*
X315281Y675554D01*
X315708Y677700D01*
X315281Y679846D01*
X314065Y681665D01*
X312246Y682881D01*
X310100Y683308D01*
D02*
G37*
G36*
X216800D02*
X197800D01*
X195654Y682881D01*
X193835Y681665D01*
X192619Y679846D01*
X192192Y677700D01*
X192619Y675554D01*
X193835Y673735D01*
X195654Y672519D01*
X197800Y672092D01*
X216800D01*
X218946Y672519D01*
X220765Y673735D01*
X221981Y675554D01*
X222408Y677700D01*
X221981Y679846D01*
X220765Y681665D01*
X218946Y682881D01*
X216800Y683308D01*
D02*
G37*
G36*
X123500D02*
X104500D01*
X102354Y682881D01*
X100535Y681665D01*
X99319Y679846D01*
X98892Y677700D01*
X99319Y675554D01*
X100535Y673735D01*
X102354Y672519D01*
X104500Y672092D01*
X123500D01*
X125646Y672519D01*
X127465Y673735D01*
X128681Y675554D01*
X129108Y677700D01*
X128681Y679846D01*
X127465Y681665D01*
X125646Y682881D01*
X123500Y683308D01*
D02*
G37*
G36*
X385400Y670608D02*
X366400D01*
X364254Y670181D01*
X362435Y668965D01*
X361219Y667146D01*
X360792Y665000D01*
X361219Y662854D01*
X362435Y661035D01*
X364254Y659819D01*
X366400Y659392D01*
X385400D01*
X387546Y659819D01*
X389365Y661035D01*
X390581Y662854D01*
X391008Y665000D01*
X390581Y667146D01*
X389365Y668965D01*
X387546Y670181D01*
X385400Y670608D01*
D02*
G37*
G36*
X292100D02*
X273100D01*
X270954Y670181D01*
X269135Y668965D01*
X267919Y667146D01*
X267492Y665000D01*
X267919Y662854D01*
X269135Y661035D01*
X270954Y659819D01*
X273100Y659392D01*
X292100D01*
X294246Y659819D01*
X296065Y661035D01*
X297281Y662854D01*
X297708Y665000D01*
X297281Y667146D01*
X296065Y668965D01*
X294246Y670181D01*
X292100Y670608D01*
D02*
G37*
G36*
X198800D02*
X179800D01*
X177654Y670181D01*
X175835Y668965D01*
X174619Y667146D01*
X174192Y665000D01*
X174619Y662854D01*
X175835Y661035D01*
X177654Y659819D01*
X179800Y659392D01*
X198800D01*
X200946Y659819D01*
X202765Y661035D01*
X203981Y662854D01*
X204408Y665000D01*
X203981Y667146D01*
X202765Y668965D01*
X200946Y670181D01*
X198800Y670608D01*
D02*
G37*
G36*
X105500D02*
X86500D01*
X84354Y670181D01*
X82535Y668965D01*
X81319Y667146D01*
X80892Y665000D01*
X81319Y662854D01*
X82535Y661035D01*
X84354Y659819D01*
X86500Y659392D01*
X105500D01*
X107646Y659819D01*
X109465Y661035D01*
X110681Y662854D01*
X111108Y665000D01*
X110681Y667146D01*
X109465Y668965D01*
X107646Y670181D01*
X105500Y670608D01*
D02*
G37*
G36*
X403400Y657908D02*
X384400D01*
X382254Y657481D01*
X380435Y656265D01*
X379219Y654446D01*
X378792Y652300D01*
X379219Y650154D01*
X380435Y648335D01*
X382254Y647119D01*
X384400Y646692D01*
X403400D01*
X405546Y647119D01*
X407365Y648335D01*
X408581Y650154D01*
X409008Y652300D01*
X408581Y654446D01*
X407365Y656265D01*
X405546Y657481D01*
X403400Y657908D01*
D02*
G37*
G36*
X310100D02*
X291100D01*
X288954Y657481D01*
X287135Y656265D01*
X285919Y654446D01*
X285492Y652300D01*
X285919Y650154D01*
X287135Y648335D01*
X288954Y647119D01*
X291100Y646692D01*
X310100D01*
X312246Y647119D01*
X314065Y648335D01*
X315281Y650154D01*
X315708Y652300D01*
X315281Y654446D01*
X314065Y656265D01*
X312246Y657481D01*
X310100Y657908D01*
D02*
G37*
G36*
X216800D02*
X197800D01*
X195654Y657481D01*
X193835Y656265D01*
X192619Y654446D01*
X192192Y652300D01*
X192619Y650154D01*
X193835Y648335D01*
X195654Y647119D01*
X197800Y646692D01*
X216800D01*
X218946Y647119D01*
X220765Y648335D01*
X221981Y650154D01*
X222408Y652300D01*
X221981Y654446D01*
X220765Y656265D01*
X218946Y657481D01*
X216800Y657908D01*
D02*
G37*
G36*
X123500D02*
X104500D01*
X102354Y657481D01*
X100535Y656265D01*
X99319Y654446D01*
X98892Y652300D01*
X99319Y650154D01*
X100535Y648335D01*
X102354Y647119D01*
X104500Y646692D01*
X123500D01*
X125646Y647119D01*
X127465Y648335D01*
X128681Y650154D01*
X129108Y652300D01*
X128681Y654446D01*
X127465Y656265D01*
X125646Y657481D01*
X123500Y657908D01*
D02*
G37*
G36*
X753895Y645500D02*
X752105D01*
X750451Y644815D01*
X749185Y643549D01*
X748500Y641895D01*
Y640105D01*
X749185Y638451D01*
X750451Y637185D01*
X752105Y636500D01*
X753895D01*
X755549Y637185D01*
X756815Y638451D01*
X757500Y640105D01*
Y641895D01*
X756815Y643549D01*
X755549Y644815D01*
X753895Y645500D01*
D02*
G37*
G36*
X779612Y642697D02*
X777821D01*
X776168Y642012D01*
X774902Y640746D01*
X774217Y639092D01*
Y637302D01*
X774902Y635648D01*
X776168Y634382D01*
X777821Y633697D01*
X779612D01*
X781265Y634382D01*
X782531Y635648D01*
X783216Y637302D01*
Y639092D01*
X782531Y640746D01*
X781265Y642012D01*
X779612Y642697D01*
D02*
G37*
G36*
X143895Y630500D02*
X142105D01*
X140451Y629815D01*
X139185Y628549D01*
X138500Y626895D01*
Y625105D01*
X139185Y623451D01*
X140451Y622185D01*
X142105Y621500D01*
X143895D01*
X145549Y622185D01*
X146815Y623451D01*
X147500Y625105D01*
Y626895D01*
X146815Y628549D01*
X145549Y629815D01*
X143895Y630500D01*
D02*
G37*
G36*
X237895Y629500D02*
X236105D01*
X234451Y628815D01*
X233185Y627549D01*
X232500Y625895D01*
Y624105D01*
X233185Y622451D01*
X234451Y621185D01*
X236105Y620500D01*
X237895D01*
X239549Y621185D01*
X240815Y622451D01*
X241500Y624105D01*
Y625895D01*
X240815Y627549D01*
X239549Y628815D01*
X237895Y629500D01*
D02*
G37*
G36*
X412807Y618704D02*
X411017D01*
X409362Y618019D01*
X408344Y617001D01*
X407738Y616793D01*
X407062Y616868D01*
X405546Y617881D01*
X403400Y618308D01*
X384400D01*
X382254Y617881D01*
X380435Y616665D01*
X379219Y614846D01*
X378792Y612700D01*
X379219Y610554D01*
X380435Y608735D01*
X382254Y607519D01*
X384400Y607092D01*
X403400D01*
X405546Y607519D01*
X407365Y608735D01*
X408262Y610076D01*
X409309Y610374D01*
X409535Y610318D01*
X411017Y609705D01*
X412807D01*
X414461Y610390D01*
X415727Y611656D01*
X416412Y613309D01*
Y615100D01*
X415727Y616754D01*
X414461Y618019D01*
X412807Y618704D01*
D02*
G37*
G36*
X320895Y620500D02*
X319105D01*
X317451Y619815D01*
X316185Y618549D01*
X315500Y616895D01*
Y616318D01*
X314500Y616015D01*
X314065Y616665D01*
X312246Y617881D01*
X310100Y618308D01*
X291100D01*
X288954Y617881D01*
X287135Y616665D01*
X285919Y614846D01*
X285492Y612700D01*
X285919Y610554D01*
X287135Y608735D01*
X288954Y607519D01*
X291100Y607092D01*
X310100D01*
X312246Y607519D01*
X314065Y608735D01*
X315281Y610554D01*
X315677Y612545D01*
X316168Y612824D01*
X316675Y612961D01*
X317451Y612185D01*
X319105Y611500D01*
X320895D01*
X322549Y612185D01*
X323815Y613451D01*
X324500Y615105D01*
Y616895D01*
X323815Y618549D01*
X322549Y619815D01*
X320895Y620500D01*
D02*
G37*
G36*
X216800Y618308D02*
X197800D01*
X195654Y617881D01*
X193835Y616665D01*
X192619Y614846D01*
X192192Y612700D01*
X192619Y610554D01*
X193835Y608735D01*
X195654Y607519D01*
X197800Y607092D01*
X216800D01*
X218946Y607519D01*
X220765Y608735D01*
X221981Y610554D01*
X222408Y612700D01*
X221981Y614846D01*
X220765Y616665D01*
X218946Y617881D01*
X216800Y618308D01*
D02*
G37*
G36*
X123500D02*
X104500D01*
X102354Y617881D01*
X100535Y616665D01*
X99319Y614846D01*
X98892Y612700D01*
X99319Y610554D01*
X100535Y608735D01*
X102354Y607519D01*
X104500Y607092D01*
X123500D01*
X125646Y607519D01*
X127465Y608735D01*
X128681Y610554D01*
X129108Y612700D01*
X128681Y614846D01*
X127465Y616665D01*
X125646Y617881D01*
X123500Y618308D01*
D02*
G37*
G36*
X385400Y605608D02*
X366400D01*
X364254Y605181D01*
X362435Y603965D01*
X361219Y602146D01*
X360792Y600000D01*
X361219Y597854D01*
X362435Y596035D01*
X364254Y594819D01*
X366400Y594392D01*
X385400D01*
X387546Y594819D01*
X389365Y596035D01*
X390581Y597854D01*
X391008Y600000D01*
X390581Y602146D01*
X389365Y603965D01*
X387546Y605181D01*
X385400Y605608D01*
D02*
G37*
G36*
X292100D02*
X273100D01*
X270954Y605181D01*
X269135Y603965D01*
X267919Y602146D01*
X267492Y600000D01*
X267919Y597854D01*
X269135Y596035D01*
X270954Y594819D01*
X273100Y594392D01*
X292100D01*
X294246Y594819D01*
X296065Y596035D01*
X297281Y597854D01*
X297708Y600000D01*
X297281Y602146D01*
X296065Y603965D01*
X294246Y605181D01*
X292100Y605608D01*
D02*
G37*
G36*
X198800D02*
X179800D01*
X177654Y605181D01*
X175835Y603965D01*
X174619Y602146D01*
X174192Y600000D01*
X174619Y597854D01*
X175835Y596035D01*
X177654Y594819D01*
X179800Y594392D01*
X198800D01*
X200946Y594819D01*
X202765Y596035D01*
X203981Y597854D01*
X204408Y600000D01*
X203981Y602146D01*
X202765Y603965D01*
X200946Y605181D01*
X198800Y605608D01*
D02*
G37*
G36*
X105500D02*
X86500D01*
X84354Y605181D01*
X82535Y603965D01*
X81319Y602146D01*
X80892Y600000D01*
X81319Y597854D01*
X82535Y596035D01*
X84354Y594819D01*
X86500Y594392D01*
X105500D01*
X107646Y594819D01*
X109465Y596035D01*
X110681Y597854D01*
X111108Y600000D01*
X110681Y602146D01*
X109465Y603965D01*
X107646Y605181D01*
X105500Y605608D01*
D02*
G37*
G36*
X403400Y592908D02*
X384400D01*
X382254Y592481D01*
X380435Y591265D01*
X379219Y589446D01*
X378792Y587300D01*
X379219Y585154D01*
X380435Y583335D01*
X382254Y582119D01*
X384400Y581692D01*
X403400D01*
X405546Y582119D01*
X407365Y583335D01*
X408581Y585154D01*
X409008Y587300D01*
X408581Y589446D01*
X407365Y591265D01*
X405546Y592481D01*
X403400Y592908D01*
D02*
G37*
G36*
X310100D02*
X291100D01*
X288954Y592481D01*
X287135Y591265D01*
X285919Y589446D01*
X285492Y587300D01*
X285919Y585154D01*
X287135Y583335D01*
X288954Y582119D01*
X291100Y581692D01*
X310100D01*
X312246Y582119D01*
X314065Y583335D01*
X315281Y585154D01*
X315708Y587300D01*
X315281Y589446D01*
X314065Y591265D01*
X312246Y592481D01*
X310100Y592908D01*
D02*
G37*
G36*
X216800D02*
X197800D01*
X195654Y592481D01*
X193835Y591265D01*
X192619Y589446D01*
X192192Y587300D01*
X192619Y585154D01*
X193835Y583335D01*
X195654Y582119D01*
X197800Y581692D01*
X216800D01*
X218946Y582119D01*
X220765Y583335D01*
X221981Y585154D01*
X222408Y587300D01*
X221981Y589446D01*
X220765Y591265D01*
X218946Y592481D01*
X216800Y592908D01*
D02*
G37*
G36*
X123500D02*
X104500D01*
X102354Y592481D01*
X100535Y591265D01*
X99319Y589446D01*
X98892Y587300D01*
X99319Y585154D01*
X100535Y583335D01*
X102354Y582119D01*
X104500Y581692D01*
X123500D01*
X125646Y582119D01*
X127465Y583335D01*
X128681Y585154D01*
X129108Y587300D01*
X128681Y589446D01*
X127465Y591265D01*
X125646Y592481D01*
X123500Y592908D01*
D02*
G37*
G36*
X705895Y590500D02*
X704105D01*
X702451Y589815D01*
X701185Y588549D01*
X700500Y586895D01*
Y585105D01*
X701185Y583451D01*
X702451Y582185D01*
X704105Y581500D01*
X705895D01*
X707549Y582185D01*
X708815Y583451D01*
X709500Y585105D01*
Y586895D01*
X708815Y588549D01*
X707549Y589815D01*
X705895Y590500D01*
D02*
G37*
G36*
X265895Y580500D02*
X264105D01*
X262451Y579815D01*
X261185Y578549D01*
X260500Y576895D01*
Y575105D01*
X261185Y573451D01*
X262451Y572185D01*
X264105Y571500D01*
X265895D01*
X267549Y572185D01*
X268815Y573451D01*
X269500Y575105D01*
Y576895D01*
X268815Y578549D01*
X267549Y579815D01*
X265895Y580500D01*
D02*
G37*
G36*
X720895Y575500D02*
X719105D01*
X717451Y574815D01*
X716185Y573549D01*
X715500Y571895D01*
Y570105D01*
X716185Y568451D01*
X717451Y567185D01*
X719105Y566500D01*
X720895D01*
X722549Y567185D01*
X723815Y568451D01*
X724500Y570105D01*
Y571895D01*
X723815Y573549D01*
X722549Y574815D01*
X720895Y575500D01*
D02*
G37*
G36*
X143895Y566500D02*
X142105D01*
X140451Y565815D01*
X139185Y564549D01*
X138500Y562895D01*
Y561105D01*
X139185Y559451D01*
X140451Y558185D01*
X142105Y557500D01*
X143895D01*
X145549Y558185D01*
X146815Y559451D01*
X147500Y561105D01*
Y562895D01*
X146815Y564549D01*
X145549Y565815D01*
X143895Y566500D01*
D02*
G37*
G36*
X236597Y564266D02*
X234807D01*
X233153Y563581D01*
X231887Y562315D01*
X231202Y560661D01*
Y558871D01*
X231887Y557217D01*
X233153Y555951D01*
X234807Y555266D01*
X236597D01*
X238251Y555951D01*
X239517Y557217D01*
X240202Y558871D01*
Y560661D01*
X239517Y562315D01*
X238251Y563581D01*
X236597Y564266D01*
D02*
G37*
G36*
X413079Y554463D02*
X411289D01*
X409635Y553778D01*
X408369Y552512D01*
X408194Y552089D01*
X407029Y551890D01*
X405546Y552881D01*
X403400Y553308D01*
X384400D01*
X382254Y552881D01*
X380435Y551665D01*
X379219Y549846D01*
X378792Y547700D01*
X379219Y545554D01*
X380435Y543735D01*
X382254Y542519D01*
X384400Y542092D01*
X403400D01*
X405546Y542519D01*
X407365Y543735D01*
X408581Y545554D01*
X408647Y545889D01*
X409471Y546139D01*
X409712Y546116D01*
X411289Y545463D01*
X413079D01*
X414733Y546148D01*
X415999Y547414D01*
X416684Y549068D01*
Y550858D01*
X415999Y552512D01*
X414733Y553778D01*
X413079Y554463D01*
D02*
G37*
G36*
X320475Y555779D02*
X318685D01*
X317031Y555094D01*
X315765Y553829D01*
X315080Y552175D01*
Y551947D01*
X314080Y551643D01*
X314065Y551665D01*
X312246Y552881D01*
X310100Y553308D01*
X291100D01*
X288954Y552881D01*
X287135Y551665D01*
X285919Y549846D01*
X285492Y547700D01*
X285919Y545554D01*
X287135Y543735D01*
X288954Y542519D01*
X291100Y542092D01*
X310100D01*
X312246Y542519D01*
X314065Y543735D01*
X315281Y545554D01*
X315654Y547428D01*
X316418Y547789D01*
X316674Y547822D01*
X317031Y547465D01*
X318685Y546780D01*
X320475D01*
X322129Y547465D01*
X323395Y548731D01*
X324080Y550384D01*
Y552175D01*
X323395Y553829D01*
X322129Y555094D01*
X320475Y555779D01*
D02*
G37*
G36*
X216800Y553308D02*
X197800D01*
X195654Y552881D01*
X193835Y551665D01*
X192619Y549846D01*
X192192Y547700D01*
X192619Y545554D01*
X193835Y543735D01*
X195654Y542519D01*
X197800Y542092D01*
X216800D01*
X218946Y542519D01*
X220765Y543735D01*
X221981Y545554D01*
X222408Y547700D01*
X221981Y549846D01*
X220765Y551665D01*
X218946Y552881D01*
X216800Y553308D01*
D02*
G37*
G36*
X123500D02*
X104500D01*
X102354Y552881D01*
X100535Y551665D01*
X99319Y549846D01*
X98892Y547700D01*
X99319Y545554D01*
X100535Y543735D01*
X102354Y542519D01*
X104500Y542092D01*
X123500D01*
X125646Y542519D01*
X127465Y543735D01*
X128681Y545554D01*
X129108Y547700D01*
X128681Y549846D01*
X127465Y551665D01*
X125646Y552881D01*
X123500Y553308D01*
D02*
G37*
G36*
X385400Y540608D02*
X366400D01*
X364254Y540181D01*
X362435Y538965D01*
X361219Y537146D01*
X360792Y535000D01*
X361219Y532854D01*
X362435Y531035D01*
X364254Y529819D01*
X366400Y529392D01*
X385400D01*
X387546Y529819D01*
X389365Y531035D01*
X390581Y532854D01*
X391008Y535000D01*
X390581Y537146D01*
X389365Y538965D01*
X387546Y540181D01*
X385400Y540608D01*
D02*
G37*
G36*
X292100D02*
X273100D01*
X270954Y540181D01*
X269135Y538965D01*
X267919Y537146D01*
X267492Y535000D01*
X267919Y532854D01*
X269135Y531035D01*
X270954Y529819D01*
X273100Y529392D01*
X292100D01*
X294246Y529819D01*
X296065Y531035D01*
X297281Y532854D01*
X297708Y535000D01*
X297281Y537146D01*
X296065Y538965D01*
X294246Y540181D01*
X292100Y540608D01*
D02*
G37*
G36*
X198800D02*
X179800D01*
X177654Y540181D01*
X175835Y538965D01*
X174619Y537146D01*
X174192Y535000D01*
X174619Y532854D01*
X175835Y531035D01*
X177654Y529819D01*
X179800Y529392D01*
X198800D01*
X200946Y529819D01*
X202765Y531035D01*
X203981Y532854D01*
X204408Y535000D01*
X203981Y537146D01*
X202765Y538965D01*
X200946Y540181D01*
X198800Y540608D01*
D02*
G37*
G36*
X105500D02*
X86500D01*
X84354Y540181D01*
X82535Y538965D01*
X81319Y537146D01*
X80892Y535000D01*
X81319Y532854D01*
X82535Y531035D01*
X84354Y529819D01*
X86500Y529392D01*
X105500D01*
X107646Y529819D01*
X109465Y531035D01*
X110681Y532854D01*
X111108Y535000D01*
X110681Y537146D01*
X109465Y538965D01*
X107646Y540181D01*
X105500Y540608D01*
D02*
G37*
G36*
X403400Y527908D02*
X384400D01*
X382254Y527481D01*
X380435Y526265D01*
X379219Y524446D01*
X378792Y522300D01*
X379219Y520154D01*
X380435Y518335D01*
X382254Y517119D01*
X384400Y516692D01*
X403400D01*
X405546Y517119D01*
X407365Y518335D01*
X408581Y520154D01*
X409008Y522300D01*
X408581Y524446D01*
X407365Y526265D01*
X405546Y527481D01*
X403400Y527908D01*
D02*
G37*
G36*
X310100D02*
X291100D01*
X288954Y527481D01*
X287135Y526265D01*
X285919Y524446D01*
X285492Y522300D01*
X285919Y520154D01*
X287135Y518335D01*
X288954Y517119D01*
X291100Y516692D01*
X310100D01*
X312246Y517119D01*
X314065Y518335D01*
X315281Y520154D01*
X315708Y522300D01*
X315281Y524446D01*
X314065Y526265D01*
X312246Y527481D01*
X310100Y527908D01*
D02*
G37*
G36*
X216800D02*
X197800D01*
X195654Y527481D01*
X193835Y526265D01*
X192619Y524446D01*
X192192Y522300D01*
X192619Y520154D01*
X193835Y518335D01*
X195654Y517119D01*
X197800Y516692D01*
X216800D01*
X218946Y517119D01*
X220765Y518335D01*
X221981Y520154D01*
X222408Y522300D01*
X221981Y524446D01*
X220765Y526265D01*
X218946Y527481D01*
X216800Y527908D01*
D02*
G37*
G36*
X123500D02*
X104500D01*
X102354Y527481D01*
X100535Y526265D01*
X99319Y524446D01*
X98892Y522300D01*
X99319Y520154D01*
X100535Y518335D01*
X102354Y517119D01*
X104500Y516692D01*
X123500D01*
X125646Y517119D01*
X127465Y518335D01*
X128681Y520154D01*
X129108Y522300D01*
X128681Y524446D01*
X127465Y526265D01*
X125646Y527481D01*
X123500Y527908D01*
D02*
G37*
G36*
X143895Y500500D02*
X142105D01*
X140451Y499815D01*
X139185Y498549D01*
X138500Y496895D01*
Y495105D01*
X139185Y493451D01*
X140451Y492185D01*
X142105Y491500D01*
X143895D01*
X145549Y492185D01*
X146815Y493451D01*
X147500Y495105D01*
Y496895D01*
X146815Y498549D01*
X145549Y499815D01*
X143895Y500500D01*
D02*
G37*
G36*
X236895Y499500D02*
X235105D01*
X233451Y498815D01*
X232185Y497549D01*
X231500Y495895D01*
Y494105D01*
X232185Y492451D01*
X233451Y491185D01*
X235105Y490500D01*
X236895D01*
X238549Y491185D01*
X239815Y492451D01*
X240500Y494105D01*
Y495895D01*
X239815Y497549D01*
X238549Y498815D01*
X236895Y499500D01*
D02*
G37*
G36*
X411828Y492953D02*
X410038D01*
X408384Y492268D01*
X407118Y491002D01*
X406433Y489348D01*
Y488491D01*
X405663Y487962D01*
X405433Y487903D01*
X403400Y488308D01*
X384400D01*
X382254Y487881D01*
X380435Y486665D01*
X379219Y484846D01*
X378792Y482700D01*
X379219Y480554D01*
X380435Y478735D01*
X382254Y477519D01*
X384400Y477092D01*
X403400D01*
X405546Y477519D01*
X407365Y478735D01*
X408581Y480554D01*
X409008Y482700D01*
X408851Y483490D01*
X409623Y484125D01*
X410038Y483953D01*
X411828D01*
X413482Y484638D01*
X414748Y485904D01*
X415433Y487558D01*
Y489348D01*
X414748Y491002D01*
X413482Y492268D01*
X411828Y492953D01*
D02*
G37*
G36*
X319896Y491073D02*
X318106D01*
X316452Y490387D01*
X315186Y489122D01*
X314536Y487553D01*
X314433Y487439D01*
X313501Y487042D01*
X312246Y487881D01*
X310100Y488308D01*
X291100D01*
X288954Y487881D01*
X287135Y486665D01*
X285919Y484846D01*
X285492Y482700D01*
X285919Y480554D01*
X287135Y478735D01*
X288954Y477519D01*
X291100Y477092D01*
X310100D01*
X312246Y477519D01*
X314065Y478735D01*
X315281Y480554D01*
X315606Y482189D01*
X315893Y482382D01*
X316655Y482674D01*
X318106Y482073D01*
X319896D01*
X321550Y482758D01*
X322816Y484024D01*
X323501Y485677D01*
Y487468D01*
X322816Y489122D01*
X321550Y490387D01*
X319896Y491073D01*
D02*
G37*
G36*
X216800Y488308D02*
X197800D01*
X195654Y487881D01*
X193835Y486665D01*
X192619Y484846D01*
X192192Y482700D01*
X192619Y480554D01*
X193835Y478735D01*
X195654Y477519D01*
X197800Y477092D01*
X216800D01*
X218946Y477519D01*
X220765Y478735D01*
X221981Y480554D01*
X222408Y482700D01*
X221981Y484846D01*
X220765Y486665D01*
X218946Y487881D01*
X216800Y488308D01*
D02*
G37*
G36*
X123500D02*
X104500D01*
X102354Y487881D01*
X100535Y486665D01*
X99319Y484846D01*
X98892Y482700D01*
X99319Y480554D01*
X100535Y478735D01*
X102354Y477519D01*
X104500Y477092D01*
X123500D01*
X125646Y477519D01*
X127465Y478735D01*
X128681Y480554D01*
X129108Y482700D01*
X128681Y484846D01*
X127465Y486665D01*
X125646Y487881D01*
X123500Y488308D01*
D02*
G37*
G36*
X385400Y475608D02*
X366400D01*
X364254Y475181D01*
X362435Y473965D01*
X361219Y472146D01*
X360792Y470000D01*
X361219Y467854D01*
X362435Y466035D01*
X364254Y464819D01*
X366400Y464392D01*
X385400D01*
X387546Y464819D01*
X389365Y466035D01*
X390581Y467854D01*
X391008Y470000D01*
X390581Y472146D01*
X389365Y473965D01*
X387546Y475181D01*
X385400Y475608D01*
D02*
G37*
G36*
X292100D02*
X273100D01*
X270954Y475181D01*
X269135Y473965D01*
X267919Y472146D01*
X267492Y470000D01*
X267919Y467854D01*
X269135Y466035D01*
X270954Y464819D01*
X273100Y464392D01*
X292100D01*
X294246Y464819D01*
X296065Y466035D01*
X297281Y467854D01*
X297708Y470000D01*
X297281Y472146D01*
X296065Y473965D01*
X294246Y475181D01*
X292100Y475608D01*
D02*
G37*
G36*
X198800D02*
X179800D01*
X177654Y475181D01*
X175835Y473965D01*
X174619Y472146D01*
X174192Y470000D01*
X174619Y467854D01*
X175835Y466035D01*
X177654Y464819D01*
X179800Y464392D01*
X198800D01*
X200946Y464819D01*
X202765Y466035D01*
X203981Y467854D01*
X204408Y470000D01*
X203981Y472146D01*
X202765Y473965D01*
X200946Y475181D01*
X198800Y475608D01*
D02*
G37*
G36*
X105500D02*
X86500D01*
X84354Y475181D01*
X82535Y473965D01*
X81319Y472146D01*
X80892Y470000D01*
X81319Y467854D01*
X82535Y466035D01*
X84354Y464819D01*
X86500Y464392D01*
X105500D01*
X107646Y464819D01*
X109465Y466035D01*
X110681Y467854D01*
X111108Y470000D01*
X110681Y472146D01*
X109465Y473965D01*
X107646Y475181D01*
X105500Y475608D01*
D02*
G37*
G36*
X403400Y462908D02*
X384400D01*
X382254Y462481D01*
X380435Y461265D01*
X379219Y459446D01*
X378792Y457300D01*
X379219Y455154D01*
X380435Y453335D01*
X382254Y452119D01*
X384400Y451692D01*
X403400D01*
X405546Y452119D01*
X407365Y453335D01*
X408581Y455154D01*
X409008Y457300D01*
X408581Y459446D01*
X407365Y461265D01*
X405546Y462481D01*
X403400Y462908D01*
D02*
G37*
G36*
X310100D02*
X291100D01*
X288954Y462481D01*
X287135Y461265D01*
X285919Y459446D01*
X285492Y457300D01*
X285919Y455154D01*
X287135Y453335D01*
X288954Y452119D01*
X291100Y451692D01*
X310100D01*
X312246Y452119D01*
X314065Y453335D01*
X315281Y455154D01*
X315708Y457300D01*
X315281Y459446D01*
X314065Y461265D01*
X312246Y462481D01*
X310100Y462908D01*
D02*
G37*
G36*
X216800D02*
X197800D01*
X195654Y462481D01*
X193835Y461265D01*
X192619Y459446D01*
X192192Y457300D01*
X192619Y455154D01*
X193835Y453335D01*
X195654Y452119D01*
X197800Y451692D01*
X216800D01*
X218946Y452119D01*
X220765Y453335D01*
X221981Y455154D01*
X222408Y457300D01*
X221981Y459446D01*
X220765Y461265D01*
X218946Y462481D01*
X216800Y462908D01*
D02*
G37*
G36*
X123500D02*
X104500D01*
X102354Y462481D01*
X100535Y461265D01*
X99319Y459446D01*
X98892Y457300D01*
X99319Y455154D01*
X100535Y453335D01*
X102354Y452119D01*
X104500Y451692D01*
X123500D01*
X125646Y452119D01*
X127465Y453335D01*
X128681Y455154D01*
X129108Y457300D01*
X128681Y459446D01*
X127465Y461265D01*
X125646Y462481D01*
X123500Y462908D01*
D02*
G37*
G36*
X254895Y449500D02*
X253105D01*
X251451Y448815D01*
X250185Y447549D01*
X249500Y445895D01*
Y444105D01*
X250185Y442451D01*
X251451Y441185D01*
X253105Y440500D01*
X254895D01*
X256549Y441185D01*
X257815Y442451D01*
X258500Y444105D01*
Y445895D01*
X257815Y447549D01*
X256549Y448815D01*
X254895Y449500D01*
D02*
G37*
G36*
X744138Y441034D02*
X742348D01*
X740694Y440349D01*
X739428Y439083D01*
X738743Y437429D01*
X737743Y437344D01*
X736999Y437652D01*
X735208D01*
X733554Y436967D01*
X732289Y435701D01*
X731603Y434048D01*
Y432257D01*
X732289Y430603D01*
X733554Y429338D01*
X735208Y428652D01*
X736999D01*
X738652Y429338D01*
X739918Y430603D01*
X740603Y432257D01*
X741603Y432342D01*
X742348Y432034D01*
X744138D01*
X745792Y432719D01*
X747058Y433985D01*
X747743Y435639D01*
Y437429D01*
X747058Y439083D01*
X745792Y440349D01*
X744138Y441034D01*
D02*
G37*
G36*
X143895Y435500D02*
X142105D01*
X140451Y434815D01*
X139185Y433549D01*
X138500Y431895D01*
Y430105D01*
X139185Y428451D01*
X140451Y427185D01*
X142105Y426500D01*
X143895D01*
X145549Y427185D01*
X146815Y428451D01*
X147500Y430105D01*
Y431895D01*
X146815Y433549D01*
X145549Y434815D01*
X143895Y435500D01*
D02*
G37*
G36*
X236895Y434500D02*
X235105D01*
X233451Y433815D01*
X232185Y432549D01*
X231500Y430895D01*
Y429105D01*
X232185Y427451D01*
X233451Y426185D01*
X235105Y425500D01*
X236895D01*
X238549Y426185D01*
X239815Y427451D01*
X240500Y429105D01*
Y430895D01*
X239815Y432549D01*
X238549Y433815D01*
X236895Y434500D01*
D02*
G37*
G36*
X319895Y425500D02*
X318105D01*
X316451Y424815D01*
X315185Y423549D01*
X314700Y422378D01*
X313609Y422004D01*
X313548Y422011D01*
X312246Y422881D01*
X310100Y423308D01*
X291100D01*
X288954Y422881D01*
X287135Y421665D01*
X285919Y419846D01*
X285492Y417700D01*
X285919Y415554D01*
X287135Y413735D01*
X288954Y412519D01*
X291100Y412092D01*
X310100D01*
X312246Y412519D01*
X314065Y413735D01*
X315281Y415554D01*
X315511Y416711D01*
X315912Y416913D01*
X316612Y417118D01*
X318105Y416500D01*
X319895D01*
X321549Y417185D01*
X322815Y418451D01*
X323500Y420105D01*
Y421895D01*
X322815Y423549D01*
X321549Y424815D01*
X319895Y425500D01*
D02*
G37*
G36*
X403400Y423308D02*
X384400D01*
X382254Y422881D01*
X380435Y421665D01*
X379219Y419846D01*
X378792Y417700D01*
X379219Y415554D01*
X380435Y413735D01*
X382254Y412519D01*
X384400Y412092D01*
X403400D01*
X405546Y412519D01*
X407365Y413735D01*
X408581Y415554D01*
X409008Y417700D01*
X408581Y419846D01*
X407365Y421665D01*
X405546Y422881D01*
X403400Y423308D01*
D02*
G37*
G36*
X216800D02*
X197800D01*
X195654Y422881D01*
X193835Y421665D01*
X192619Y419846D01*
X192192Y417700D01*
X192619Y415554D01*
X193835Y413735D01*
X195654Y412519D01*
X197800Y412092D01*
X216800D01*
X218946Y412519D01*
X220765Y413735D01*
X221981Y415554D01*
X222408Y417700D01*
X221981Y419846D01*
X220765Y421665D01*
X218946Y422881D01*
X216800Y423308D01*
D02*
G37*
G36*
X123500D02*
X104500D01*
X102354Y422881D01*
X100535Y421665D01*
X99319Y419846D01*
X98892Y417700D01*
X99319Y415554D01*
X100535Y413735D01*
X102354Y412519D01*
X104500Y412092D01*
X123500D01*
X125646Y412519D01*
X127465Y413735D01*
X128681Y415554D01*
X129108Y417700D01*
X128681Y419846D01*
X127465Y421665D01*
X125646Y422881D01*
X123500Y423308D01*
D02*
G37*
G36*
X423895Y415500D02*
X422105D01*
X420451Y414815D01*
X419185Y413549D01*
X418500Y411895D01*
Y410105D01*
X419185Y408451D01*
X420451Y407185D01*
X422105Y406500D01*
X423895D01*
X425549Y407185D01*
X426815Y408451D01*
X427500Y410105D01*
Y411895D01*
X426815Y413549D01*
X425549Y414815D01*
X423895Y415500D01*
D02*
G37*
G36*
X385400Y410608D02*
X366400D01*
X364254Y410181D01*
X362435Y408965D01*
X361219Y407146D01*
X360792Y405000D01*
X361219Y402854D01*
X362435Y401035D01*
X364254Y399819D01*
X366400Y399392D01*
X385400D01*
X387546Y399819D01*
X389365Y401035D01*
X390581Y402854D01*
X391008Y405000D01*
X390581Y407146D01*
X389365Y408965D01*
X387546Y410181D01*
X385400Y410608D01*
D02*
G37*
G36*
X292100D02*
X273100D01*
X270954Y410181D01*
X269135Y408965D01*
X267919Y407146D01*
X267492Y405000D01*
X267919Y402854D01*
X269135Y401035D01*
X270954Y399819D01*
X273100Y399392D01*
X292100D01*
X294246Y399819D01*
X296065Y401035D01*
X297281Y402854D01*
X297708Y405000D01*
X297281Y407146D01*
X296065Y408965D01*
X294246Y410181D01*
X292100Y410608D01*
D02*
G37*
G36*
X198800D02*
X179800D01*
X177654Y410181D01*
X175835Y408965D01*
X174619Y407146D01*
X174192Y405000D01*
X174619Y402854D01*
X175835Y401035D01*
X177654Y399819D01*
X179800Y399392D01*
X198800D01*
X200946Y399819D01*
X202765Y401035D01*
X203981Y402854D01*
X204408Y405000D01*
X203981Y407146D01*
X202765Y408965D01*
X200946Y410181D01*
X198800Y410608D01*
D02*
G37*
G36*
X105500D02*
X86500D01*
X84354Y410181D01*
X82535Y408965D01*
X81319Y407146D01*
X80892Y405000D01*
X81319Y402854D01*
X82535Y401035D01*
X84354Y399819D01*
X86500Y399392D01*
X105500D01*
X107646Y399819D01*
X109465Y401035D01*
X110681Y402854D01*
X111108Y405000D01*
X110681Y407146D01*
X109465Y408965D01*
X107646Y410181D01*
X105500Y410608D01*
D02*
G37*
G36*
X714895Y396500D02*
X713105D01*
X711451Y395815D01*
X710185Y394549D01*
X709500Y392895D01*
Y391105D01*
X710185Y389451D01*
X711451Y388185D01*
X713105Y387500D01*
X714895D01*
X716549Y388185D01*
X717815Y389451D01*
X718500Y391105D01*
Y392895D01*
X717815Y394549D01*
X716549Y395815D01*
X714895Y396500D01*
D02*
G37*
G36*
X741424Y396273D02*
X739634D01*
X737980Y395588D01*
X736714Y394322D01*
X736029Y392668D01*
Y390878D01*
X736714Y389224D01*
X737980Y387958D01*
X739634Y387273D01*
X741424D01*
X743078Y387958D01*
X744344Y389224D01*
X745029Y390878D01*
Y392668D01*
X744344Y394322D01*
X743078Y395588D01*
X741424Y396273D01*
D02*
G37*
G36*
X403400Y397908D02*
X384400D01*
X382254Y397481D01*
X380435Y396265D01*
X379219Y394446D01*
X378792Y392300D01*
X379219Y390154D01*
X380435Y388335D01*
X382254Y387119D01*
X384400Y386692D01*
X403400D01*
X405546Y387119D01*
X407365Y388335D01*
X408581Y390154D01*
X409008Y392300D01*
X408581Y394446D01*
X407365Y396265D01*
X405546Y397481D01*
X403400Y397908D01*
D02*
G37*
G36*
X310100D02*
X291100D01*
X288954Y397481D01*
X287135Y396265D01*
X285919Y394446D01*
X285492Y392300D01*
X285919Y390154D01*
X287135Y388335D01*
X288954Y387119D01*
X291100Y386692D01*
X310100D01*
X312246Y387119D01*
X314065Y388335D01*
X315281Y390154D01*
X315708Y392300D01*
X315281Y394446D01*
X314065Y396265D01*
X312246Y397481D01*
X310100Y397908D01*
D02*
G37*
G36*
X216800D02*
X197800D01*
X195654Y397481D01*
X193835Y396265D01*
X192619Y394446D01*
X192192Y392300D01*
X192619Y390154D01*
X193835Y388335D01*
X195654Y387119D01*
X197800Y386692D01*
X216800D01*
X218946Y387119D01*
X220765Y388335D01*
X221981Y390154D01*
X222408Y392300D01*
X221981Y394446D01*
X220765Y396265D01*
X218946Y397481D01*
X216800Y397908D01*
D02*
G37*
G36*
X123500D02*
X104500D01*
X102354Y397481D01*
X100535Y396265D01*
X99319Y394446D01*
X98892Y392300D01*
X99319Y390154D01*
X100535Y388335D01*
X102354Y387119D01*
X104500Y386692D01*
X123500D01*
X125646Y387119D01*
X127465Y388335D01*
X128681Y390154D01*
X129108Y392300D01*
X128681Y394446D01*
X127465Y396265D01*
X125646Y397481D01*
X123500Y397908D01*
D02*
G37*
G36*
X727672Y389500D02*
X725882D01*
X724228Y388815D01*
X722962Y387549D01*
X722277Y385895D01*
Y384105D01*
X722962Y382451D01*
X724228Y381185D01*
X725882Y380500D01*
X727672D01*
X729326Y381185D01*
X730592Y382451D01*
X731277Y384105D01*
Y385895D01*
X730592Y387549D01*
X729326Y388815D01*
X727672Y389500D01*
D02*
G37*
G36*
X741701Y381500D02*
X739911D01*
X738257Y380815D01*
X736991Y379549D01*
X736306Y377895D01*
Y376105D01*
X736991Y374451D01*
X738257Y373185D01*
X739911Y372500D01*
X741701D01*
X743355Y373185D01*
X744621Y374451D01*
X745306Y376105D01*
Y377895D01*
X744621Y379549D01*
X743355Y380815D01*
X741701Y381500D01*
D02*
G37*
G36*
X754395Y379576D02*
X752605D01*
X750951Y378890D01*
X749685Y377625D01*
X749000Y375971D01*
Y374180D01*
X749685Y372527D01*
X750951Y371261D01*
X752605Y370576D01*
X754395D01*
X756049Y371261D01*
X757315Y372527D01*
X758000Y374180D01*
Y375971D01*
X757315Y377625D01*
X756049Y378890D01*
X754395Y379576D01*
D02*
G37*
G36*
X236895Y370500D02*
X235105D01*
X233451Y369815D01*
X232185Y368549D01*
X231500Y366895D01*
Y365105D01*
X232185Y363451D01*
X233451Y362185D01*
X235105Y361500D01*
X236895D01*
X238549Y362185D01*
X239815Y363451D01*
X240500Y365105D01*
Y366895D01*
X239815Y368549D01*
X238549Y369815D01*
X236895Y370500D01*
D02*
G37*
G36*
X143895Y369500D02*
X142105D01*
X140451Y368815D01*
X139185Y367549D01*
X138500Y365895D01*
Y364105D01*
X139185Y362451D01*
X140451Y361185D01*
X142105Y360500D01*
X143895D01*
X145549Y361185D01*
X146815Y362451D01*
X147500Y364105D01*
Y365895D01*
X146815Y367549D01*
X145549Y368815D01*
X143895Y369500D01*
D02*
G37*
G36*
X767338Y367076D02*
X765548D01*
X763894Y366390D01*
X762628Y365125D01*
X761943Y363471D01*
Y361680D01*
X762628Y360027D01*
X763894Y358761D01*
X765548Y358076D01*
X767338D01*
X768992Y358761D01*
X770258Y360027D01*
X770943Y361680D01*
Y363471D01*
X770258Y365125D01*
X768992Y366390D01*
X767338Y367076D01*
D02*
G37*
G36*
X320290Y360471D02*
X318500D01*
X316846Y359785D01*
X315580Y358520D01*
X314986Y357087D01*
X314567Y356895D01*
X314269Y356812D01*
X313895Y356779D01*
X312246Y357881D01*
X310100Y358308D01*
X291100D01*
X288954Y357881D01*
X287135Y356665D01*
X285919Y354846D01*
X285492Y352700D01*
X285919Y350554D01*
X287135Y348735D01*
X288954Y347519D01*
X291100Y347092D01*
X310100D01*
X312246Y347519D01*
X314065Y348735D01*
X315281Y350554D01*
X315572Y352016D01*
X316657Y352345D01*
X316846Y352156D01*
X318500Y351471D01*
X320290D01*
X321944Y352156D01*
X323210Y353422D01*
X323895Y355075D01*
Y356866D01*
X323210Y358520D01*
X321944Y359785D01*
X320290Y360471D01*
D02*
G37*
G36*
X403400Y358308D02*
X384400D01*
X382254Y357881D01*
X380435Y356665D01*
X379219Y354846D01*
X378792Y352700D01*
X379219Y350554D01*
X380435Y348735D01*
X382254Y347519D01*
X384400Y347092D01*
X403400D01*
X405546Y347519D01*
X407365Y348735D01*
X408581Y350554D01*
X409008Y352700D01*
X408581Y354846D01*
X407365Y356665D01*
X405546Y357881D01*
X403400Y358308D01*
D02*
G37*
G36*
X216800D02*
X197800D01*
X195654Y357881D01*
X193835Y356665D01*
X192619Y354846D01*
X192192Y352700D01*
X192619Y350554D01*
X193835Y348735D01*
X195654Y347519D01*
X197800Y347092D01*
X216800D01*
X218946Y347519D01*
X220765Y348735D01*
X221981Y350554D01*
X222408Y352700D01*
X221981Y354846D01*
X220765Y356665D01*
X218946Y357881D01*
X216800Y358308D01*
D02*
G37*
G36*
X123500D02*
X104500D01*
X102354Y357881D01*
X100535Y356665D01*
X99319Y354846D01*
X98892Y352700D01*
X99319Y350554D01*
X100535Y348735D01*
X102354Y347519D01*
X104500Y347092D01*
X123500D01*
X125646Y347519D01*
X127465Y348735D01*
X128681Y350554D01*
X129108Y352700D01*
X128681Y354846D01*
X127465Y356665D01*
X125646Y357881D01*
X123500Y358308D01*
D02*
G37*
G36*
X421020Y349541D02*
X419230D01*
X417576Y348856D01*
X416310Y347590D01*
X415625Y345936D01*
Y344146D01*
X416310Y342492D01*
X417576Y341226D01*
X419230Y340541D01*
X421020D01*
X422674Y341226D01*
X423940Y342492D01*
X424625Y344146D01*
Y345936D01*
X423940Y347590D01*
X422674Y348856D01*
X421020Y349541D01*
D02*
G37*
G36*
X385400Y345608D02*
X366400D01*
X364254Y345181D01*
X362435Y343965D01*
X361219Y342146D01*
X360792Y340000D01*
X361219Y337854D01*
X362435Y336035D01*
X364254Y334819D01*
X366400Y334392D01*
X385400D01*
X387546Y334819D01*
X389365Y336035D01*
X390581Y337854D01*
X391008Y340000D01*
X390581Y342146D01*
X389365Y343965D01*
X387546Y345181D01*
X385400Y345608D01*
D02*
G37*
G36*
X292100D02*
X273100D01*
X270954Y345181D01*
X269135Y343965D01*
X267919Y342146D01*
X267492Y340000D01*
X267919Y337854D01*
X269135Y336035D01*
X270954Y334819D01*
X273100Y334392D01*
X292100D01*
X294246Y334819D01*
X296065Y336035D01*
X297281Y337854D01*
X297708Y340000D01*
X297281Y342146D01*
X296065Y343965D01*
X294246Y345181D01*
X292100Y345608D01*
D02*
G37*
G36*
X198800D02*
X179800D01*
X177654Y345181D01*
X175835Y343965D01*
X174619Y342146D01*
X174192Y340000D01*
X174619Y337854D01*
X175835Y336035D01*
X177654Y334819D01*
X179800Y334392D01*
X198800D01*
X200946Y334819D01*
X202765Y336035D01*
X203981Y337854D01*
X204408Y340000D01*
X203981Y342146D01*
X202765Y343965D01*
X200946Y345181D01*
X198800Y345608D01*
D02*
G37*
G36*
X105500D02*
X86500D01*
X84354Y345181D01*
X82535Y343965D01*
X81319Y342146D01*
X80892Y340000D01*
X81319Y337854D01*
X82535Y336035D01*
X84354Y334819D01*
X86500Y334392D01*
X105500D01*
X107646Y334819D01*
X109465Y336035D01*
X110681Y337854D01*
X111108Y340000D01*
X110681Y342146D01*
X109465Y343965D01*
X107646Y345181D01*
X105500Y345608D01*
D02*
G37*
G36*
X740895Y340500D02*
X739105D01*
X737451Y339815D01*
X736185Y338549D01*
X735500Y336895D01*
Y335105D01*
X736185Y333451D01*
X737451Y332185D01*
X739105Y331500D01*
X740895D01*
X742549Y332185D01*
X743815Y333451D01*
X744500Y335105D01*
Y336895D01*
X743815Y338549D01*
X742549Y339815D01*
X740895Y340500D01*
D02*
G37*
G36*
X403400Y332908D02*
X384400D01*
X382254Y332481D01*
X380435Y331265D01*
X379219Y329446D01*
X378792Y327300D01*
X379219Y325154D01*
X380435Y323335D01*
X382254Y322119D01*
X384400Y321692D01*
X403400D01*
X405546Y322119D01*
X407365Y323335D01*
X408581Y325154D01*
X409008Y327300D01*
X408581Y329446D01*
X407365Y331265D01*
X405546Y332481D01*
X403400Y332908D01*
D02*
G37*
G36*
X310100D02*
X291100D01*
X288954Y332481D01*
X287135Y331265D01*
X285919Y329446D01*
X285492Y327300D01*
X285919Y325154D01*
X287135Y323335D01*
X288954Y322119D01*
X291100Y321692D01*
X310100D01*
X312246Y322119D01*
X314065Y323335D01*
X315281Y325154D01*
X315708Y327300D01*
X315281Y329446D01*
X314065Y331265D01*
X312246Y332481D01*
X310100Y332908D01*
D02*
G37*
G36*
X216800D02*
X197800D01*
X195654Y332481D01*
X193835Y331265D01*
X192619Y329446D01*
X192192Y327300D01*
X192619Y325154D01*
X193835Y323335D01*
X195654Y322119D01*
X197800Y321692D01*
X216800D01*
X218946Y322119D01*
X220765Y323335D01*
X221981Y325154D01*
X222408Y327300D01*
X221981Y329446D01*
X220765Y331265D01*
X218946Y332481D01*
X216800Y332908D01*
D02*
G37*
G36*
X123500D02*
X104500D01*
X102354Y332481D01*
X100535Y331265D01*
X99319Y329446D01*
X98892Y327300D01*
X99319Y325154D01*
X100535Y323335D01*
X102354Y322119D01*
X104500Y321692D01*
X123500D01*
X125646Y322119D01*
X127465Y323335D01*
X128681Y325154D01*
X129108Y327300D01*
X128681Y329446D01*
X127465Y331265D01*
X125646Y332481D01*
X123500Y332908D01*
D02*
G37*
G36*
X757115Y330294D02*
X755325D01*
X753671Y329609D01*
X752405Y328343D01*
X751720Y326689D01*
Y324899D01*
X752405Y323245D01*
X753671Y321979D01*
X755325Y321294D01*
X757115D01*
X758769Y321979D01*
X760035Y323245D01*
X760720Y324899D01*
Y326689D01*
X760035Y328343D01*
X758769Y329609D01*
X757115Y330294D01*
D02*
G37*
G36*
X199895Y315500D02*
X198105D01*
X196451Y314815D01*
X195185Y313549D01*
X194500Y311895D01*
Y310105D01*
X195185Y308451D01*
X196451Y307185D01*
X198105Y306500D01*
X199895D01*
X201549Y307185D01*
X202815Y308451D01*
X203500Y310105D01*
Y311895D01*
X202815Y313549D01*
X201549Y314815D01*
X199895Y315500D01*
D02*
G37*
G36*
X174895D02*
X173105D01*
X171451Y314815D01*
X170185Y313549D01*
X169500Y311895D01*
Y310105D01*
X170185Y308451D01*
X171451Y307185D01*
X173105Y306500D01*
X174895D01*
X176549Y307185D01*
X177815Y308451D01*
X178500Y310105D01*
Y311895D01*
X177815Y313549D01*
X176549Y314815D01*
X174895Y315500D01*
D02*
G37*
G36*
X148895D02*
X147105D01*
X145451Y314815D01*
X144185Y313549D01*
X143500Y311895D01*
Y310105D01*
X144185Y308451D01*
X145451Y307185D01*
X147105Y306500D01*
X148895D01*
X150549Y307185D01*
X151815Y308451D01*
X152500Y310105D01*
Y311895D01*
X151815Y313549D01*
X150549Y314815D01*
X148895Y315500D01*
D02*
G37*
G36*
X75827Y302130D02*
X74633D01*
X73531Y301673D01*
X72687Y300829D01*
X72230Y299727D01*
Y298533D01*
X72687Y297431D01*
X73531Y296587D01*
X74633Y296130D01*
X75827D01*
X76929Y296587D01*
X77773Y297431D01*
X78230Y298533D01*
Y299727D01*
X77773Y300829D01*
X76929Y301673D01*
X75827Y302130D01*
D02*
G37*
G36*
X62827D02*
X61633D01*
X60531Y301673D01*
X59687Y300829D01*
X59230Y299727D01*
Y298533D01*
X59687Y297431D01*
X60531Y296587D01*
X61633Y296130D01*
X62827D01*
X63929Y296587D01*
X64773Y297431D01*
X65230Y298533D01*
Y299727D01*
X64773Y300829D01*
X63929Y301673D01*
X62827Y302130D01*
D02*
G37*
G36*
X121895Y301500D02*
X120105D01*
X118451Y300815D01*
X117185Y299549D01*
X116500Y297895D01*
Y296105D01*
X117185Y294451D01*
X118451Y293185D01*
X120105Y292500D01*
X121895D01*
X123549Y293185D01*
X124815Y294451D01*
X125500Y296105D01*
Y297895D01*
X124815Y299549D01*
X123549Y300815D01*
X121895Y301500D01*
D02*
G37*
G36*
X769007Y292144D02*
X767216D01*
X765563Y291459D01*
X764297Y290193D01*
X763612Y288539D01*
Y286749D01*
X764297Y285095D01*
X765563Y283829D01*
X767216Y283144D01*
X769007D01*
X770661Y283829D01*
X771926Y285095D01*
X772612Y286749D01*
Y288539D01*
X771926Y290193D01*
X770661Y291459D01*
X769007Y292144D01*
D02*
G37*
G36*
X75827Y289130D02*
X74633D01*
X73531Y288673D01*
X72687Y287829D01*
X72230Y286727D01*
Y285533D01*
X72687Y284431D01*
X73531Y283587D01*
X74633Y283130D01*
X75827D01*
X76929Y283587D01*
X77773Y284431D01*
X78230Y285533D01*
Y286727D01*
X77773Y287829D01*
X76929Y288673D01*
X75827Y289130D01*
D02*
G37*
G36*
X62827D02*
X61633D01*
X60531Y288673D01*
X59687Y287829D01*
X59230Y286727D01*
Y285533D01*
X59687Y284431D01*
X60531Y283587D01*
X61633Y283130D01*
X62827D01*
X63929Y283587D01*
X64773Y284431D01*
X65230Y285533D01*
Y286727D01*
X64773Y287829D01*
X63929Y288673D01*
X62827Y289130D01*
D02*
G37*
G36*
X108895Y290500D02*
X107105D01*
X105451Y289815D01*
X104185Y288549D01*
X103500Y286895D01*
Y285105D01*
X104185Y283451D01*
X105451Y282185D01*
X107105Y281500D01*
X108895D01*
X110549Y282185D01*
X111815Y283451D01*
X112500Y285105D01*
Y286895D01*
X111815Y288549D01*
X110549Y289815D01*
X108895Y290500D01*
D02*
G37*
G36*
X75827Y276130D02*
X74633D01*
X73531Y275673D01*
X72687Y274829D01*
X72230Y273727D01*
Y272533D01*
X72687Y271431D01*
X73531Y270587D01*
X74633Y270130D01*
X75827D01*
X76929Y270587D01*
X77773Y271431D01*
X78230Y272533D01*
Y273727D01*
X77773Y274829D01*
X76929Y275673D01*
X75827Y276130D01*
D02*
G37*
G36*
X62827D02*
X61633D01*
X60531Y275673D01*
X59687Y274829D01*
X59230Y273727D01*
Y272533D01*
X59687Y271431D01*
X60531Y270587D01*
X61633Y270130D01*
X62827D01*
X63929Y270587D01*
X64773Y271431D01*
X65230Y272533D01*
Y273727D01*
X64773Y274829D01*
X63929Y275673D01*
X62827Y276130D01*
D02*
G37*
G36*
X75827Y263130D02*
X74633D01*
X73531Y262673D01*
X72687Y261829D01*
X72230Y260727D01*
Y259533D01*
X72687Y258431D01*
X73531Y257587D01*
X74633Y257130D01*
X75827D01*
X76929Y257587D01*
X77773Y258431D01*
X78230Y259533D01*
Y260727D01*
X77773Y261829D01*
X76929Y262673D01*
X75827Y263130D01*
D02*
G37*
G36*
X62827D02*
X61633D01*
X60531Y262673D01*
X59687Y261829D01*
X59230Y260727D01*
Y259533D01*
X59687Y258431D01*
X60531Y257587D01*
X61633Y257130D01*
X62827D01*
X63929Y257587D01*
X64773Y258431D01*
X65230Y259533D01*
Y260727D01*
X64773Y261829D01*
X63929Y262673D01*
X62827Y263130D01*
D02*
G37*
G36*
X305895Y261500D02*
X304105D01*
X302451Y260815D01*
X301185Y259549D01*
X300500Y257895D01*
Y256105D01*
X301185Y254451D01*
X302451Y253185D01*
X304105Y252500D01*
X305895D01*
X307549Y253185D01*
X308815Y254451D01*
X309500Y256105D01*
Y257895D01*
X308815Y259549D01*
X307549Y260815D01*
X305895Y261500D01*
D02*
G37*
G36*
X693895Y258500D02*
X692105D01*
X690451Y257815D01*
X689185Y256549D01*
X688500Y254895D01*
Y253105D01*
X689185Y251451D01*
X690451Y250185D01*
X692105Y249500D01*
X693895D01*
X695549Y250185D01*
X696815Y251451D01*
X697500Y253105D01*
Y254895D01*
X696815Y256549D01*
X695549Y257815D01*
X693895Y258500D01*
D02*
G37*
G36*
X280895Y256500D02*
X279105D01*
X277451Y255815D01*
X276185Y254549D01*
X275500Y252895D01*
Y251105D01*
X276185Y249451D01*
X277451Y248185D01*
X279105Y247500D01*
X280895D01*
X282549Y248185D01*
X283815Y249451D01*
X284500Y251105D01*
Y252895D01*
X283815Y254549D01*
X282549Y255815D01*
X280895Y256500D01*
D02*
G37*
G36*
X700290Y246322D02*
X698500D01*
X696846Y245637D01*
X695580Y244372D01*
X694895Y242718D01*
Y240928D01*
X695580Y239273D01*
X696846Y238008D01*
X698500Y237323D01*
X700290D01*
X701944Y238008D01*
X703210Y239273D01*
X703895Y240928D01*
Y242718D01*
X703210Y244372D01*
X701944Y245637D01*
X700290Y246322D01*
D02*
G37*
G36*
X683895Y234500D02*
X682105D01*
X680451Y233815D01*
X679185Y232549D01*
X678500Y230895D01*
Y229105D01*
X679185Y227451D01*
X680451Y226185D01*
X682105Y225500D01*
X683895D01*
X685549Y226185D01*
X686815Y227451D01*
X687500Y229105D01*
Y230895D01*
X686815Y232549D01*
X685549Y233815D01*
X683895Y234500D01*
D02*
G37*
G36*
X27895Y231500D02*
X26105D01*
X24451Y230815D01*
X23185Y229549D01*
X22500Y227895D01*
Y226105D01*
X23185Y224451D01*
X24451Y223185D01*
X26105Y222500D01*
X27895D01*
X29549Y223185D01*
X30815Y224451D01*
X31500Y226105D01*
Y227895D01*
X30815Y229549D01*
X29549Y230815D01*
X27895Y231500D01*
D02*
G37*
G36*
X715370Y231200D02*
X713580D01*
X711926Y230515D01*
X710660Y229249D01*
X709975Y227595D01*
Y225805D01*
X710660Y224151D01*
X711926Y222885D01*
X713580Y222200D01*
X715370D01*
X717024Y222885D01*
X718290Y224151D01*
X718975Y225805D01*
Y227595D01*
X718290Y229249D01*
X717024Y230515D01*
X715370Y231200D01*
D02*
G37*
G36*
X636500Y231000D02*
X634710D01*
X633056Y230315D01*
X631790Y229049D01*
X631105Y227395D01*
Y225605D01*
X631790Y223951D01*
X633056Y222685D01*
X634710Y222000D01*
X636500D01*
X638154Y222685D01*
X639420Y223951D01*
X640105Y225605D01*
Y227395D01*
X639420Y229049D01*
X638154Y230315D01*
X636500Y231000D01*
D02*
G37*
G36*
X623965Y225000D02*
X622175D01*
X620521Y224315D01*
X619255Y223049D01*
X618570Y221395D01*
Y219605D01*
X619255Y217951D01*
X620521Y216685D01*
X622175Y216000D01*
X623965D01*
X625619Y216685D01*
X626885Y217951D01*
X627570Y219605D01*
Y221395D01*
X626885Y223049D01*
X625619Y224315D01*
X623965Y225000D01*
D02*
G37*
G36*
X610895Y217500D02*
X609105D01*
X607451Y216815D01*
X606185Y215549D01*
X605500Y213895D01*
Y212105D01*
X606185Y210451D01*
X607451Y209185D01*
X609105Y208500D01*
X610895D01*
X612549Y209185D01*
X613815Y210451D01*
X614500Y212105D01*
Y213895D01*
X613815Y215549D01*
X612549Y216815D01*
X610895Y217500D01*
D02*
G37*
G36*
X111542Y216921D02*
X109752D01*
X108098Y216236D01*
X106832Y214970D01*
X106147Y213316D01*
Y211526D01*
X106832Y209872D01*
X108098Y208606D01*
X109752Y207921D01*
X111542D01*
X113196Y208606D01*
X114462Y209872D01*
X115147Y211526D01*
Y213316D01*
X114462Y214970D01*
X113196Y216236D01*
X111542Y216921D01*
D02*
G37*
G36*
X597895Y210500D02*
X596105D01*
X594451Y209815D01*
X593185Y208549D01*
X592500Y206895D01*
Y205105D01*
X593185Y203451D01*
X594451Y202185D01*
X596105Y201500D01*
X597895D01*
X599549Y202185D01*
X600815Y203451D01*
X601500Y205105D01*
Y206895D01*
X600815Y208549D01*
X599549Y209815D01*
X597895Y210500D01*
D02*
G37*
G36*
X690947Y219335D02*
X689157D01*
X687503Y218649D01*
X686237Y217383D01*
X685552Y215730D01*
Y213939D01*
X686180Y212424D01*
X686119Y212225D01*
X685960Y211939D01*
X685609Y211500D01*
X684105D01*
X682451Y210815D01*
X681185Y209549D01*
X680500Y207895D01*
Y206332D01*
X680150Y205850D01*
X679668Y205500D01*
X678105D01*
X676451Y204815D01*
X675185Y203549D01*
X674500Y201895D01*
Y200105D01*
X674886Y199172D01*
X674121Y198406D01*
X673895Y198500D01*
X672105D01*
X670451Y197815D01*
X669185Y196549D01*
X668500Y194895D01*
Y193105D01*
X669185Y191451D01*
X670451Y190185D01*
X672105Y189500D01*
X673895D01*
X675549Y190185D01*
X676815Y191451D01*
X677500Y193105D01*
Y194895D01*
X677113Y195828D01*
X677879Y196594D01*
X678105Y196500D01*
X679895D01*
X681549Y197185D01*
X682815Y198451D01*
X683500Y200105D01*
Y201668D01*
X683850Y202150D01*
X684332Y202500D01*
X685895D01*
X687549Y203185D01*
X688815Y204451D01*
X689500Y206105D01*
Y207895D01*
X688872Y209411D01*
X688934Y209610D01*
X689092Y209896D01*
X689444Y210334D01*
X690947D01*
X692601Y211020D01*
X693867Y212285D01*
X694552Y213939D01*
Y215730D01*
X693867Y217383D01*
X692601Y218649D01*
X690947Y219335D01*
D02*
G37*
G36*
X585895Y204500D02*
X584105D01*
X582451Y203815D01*
X581185Y202549D01*
X580500Y200895D01*
Y199105D01*
X581185Y197451D01*
X582451Y196185D01*
X584105Y195500D01*
X585895D01*
X587549Y196185D01*
X588815Y197451D01*
X589500Y199105D01*
Y200895D01*
X588815Y202549D01*
X587549Y203815D01*
X585895Y204500D01*
D02*
G37*
G36*
X551895D02*
X550105D01*
X548451Y203815D01*
X547185Y202549D01*
X546500Y200895D01*
Y199105D01*
X547185Y197451D01*
X548451Y196185D01*
X550105Y195500D01*
X551895D01*
X553549Y196185D01*
X554815Y197451D01*
X555500Y199105D01*
Y200895D01*
X554815Y202549D01*
X553549Y203815D01*
X551895Y204500D01*
D02*
G37*
G36*
X572895Y197500D02*
X571105D01*
X569451Y196815D01*
X568185Y195549D01*
X567500Y193895D01*
Y192105D01*
X568185Y190451D01*
X569451Y189185D01*
X571105Y188500D01*
X572895D01*
X574549Y189185D01*
X575815Y190451D01*
X576500Y192105D01*
Y193895D01*
X575815Y195549D01*
X574549Y196815D01*
X572895Y197500D01*
D02*
G37*
G36*
X481397Y194137D02*
X479607D01*
X477953Y193451D01*
X476687Y192185D01*
X476002Y190532D01*
Y188741D01*
X476687Y187087D01*
X477953Y185822D01*
X479607Y185137D01*
X481397D01*
X483051Y185822D01*
X484317Y187087D01*
X485002Y188741D01*
Y190532D01*
X484317Y192185D01*
X483051Y193451D01*
X481397Y194137D01*
D02*
G37*
G36*
X444895Y193500D02*
X443105D01*
X441451Y192815D01*
X440185Y191549D01*
X439500Y189895D01*
Y188105D01*
X440185Y186451D01*
X441451Y185185D01*
X443105Y184500D01*
X444895D01*
X446549Y185185D01*
X447815Y186451D01*
X448500Y188105D01*
Y189895D01*
X447815Y191549D01*
X446549Y192815D01*
X444895Y193500D01*
D02*
G37*
G36*
X685108Y189785D02*
X683318D01*
X681664Y189099D01*
X680398Y187834D01*
X679713Y186180D01*
Y184389D01*
X680398Y182736D01*
X681664Y181470D01*
X683318Y180784D01*
X685108D01*
X686762Y181470D01*
X688028Y182736D01*
X688713Y184389D01*
Y186180D01*
X688028Y187834D01*
X686762Y189099D01*
X685108Y189785D01*
D02*
G37*
G36*
X558895Y189500D02*
X557105D01*
X555451Y188815D01*
X554185Y187549D01*
X553500Y185895D01*
Y184105D01*
X554185Y182451D01*
X555451Y181185D01*
X557105Y180500D01*
X558895D01*
X560549Y181185D01*
X561815Y182451D01*
X562500Y184105D01*
Y185895D01*
X561815Y187549D01*
X560549Y188815D01*
X558895Y189500D01*
D02*
G37*
G36*
X336895Y185500D02*
X335105D01*
X333451Y184815D01*
X332185Y183549D01*
X331500Y181895D01*
Y180105D01*
X332185Y178451D01*
X333451Y177185D01*
X335105Y176500D01*
X336895D01*
X338549Y177185D01*
X339815Y178451D01*
X340500Y180105D01*
Y181895D01*
X339815Y183549D01*
X338549Y184815D01*
X336895Y185500D01*
D02*
G37*
G36*
X189913Y184942D02*
X188123D01*
X186469Y184257D01*
X185203Y182992D01*
X184518Y181338D01*
Y179547D01*
X185203Y177893D01*
X186469Y176628D01*
X188123Y175942D01*
X189913D01*
X191567Y176628D01*
X192833Y177893D01*
X193518Y179547D01*
Y181338D01*
X192833Y182992D01*
X191567Y184257D01*
X189913Y184942D01*
D02*
G37*
G36*
X546895Y182500D02*
X545105D01*
X543451Y181815D01*
X542185Y180549D01*
X541500Y178895D01*
Y177105D01*
X542185Y175451D01*
X543451Y174185D01*
X545105Y173500D01*
X546895D01*
X548549Y174185D01*
X549815Y175451D01*
X550500Y177105D01*
Y178895D01*
X549815Y180549D01*
X548549Y181815D01*
X546895Y182500D01*
D02*
G37*
G36*
X695675Y182553D02*
X693885D01*
X692231Y181868D01*
X690965Y180602D01*
X690280Y178948D01*
Y177158D01*
X690656Y176250D01*
X690105Y175250D01*
X688451Y174565D01*
X687185Y173299D01*
X686500Y171645D01*
Y169855D01*
X687185Y168201D01*
X688451Y166935D01*
X690105Y166250D01*
X691895D01*
X693549Y166935D01*
X694815Y168201D01*
X695500Y169855D01*
Y171645D01*
X695124Y172553D01*
X695675Y173553D01*
X697329Y174238D01*
X698595Y175504D01*
X699280Y177158D01*
Y178948D01*
X698595Y180602D01*
X697329Y181868D01*
X695675Y182553D01*
D02*
G37*
G36*
X661656Y162850D02*
X659944D01*
X658291Y162407D01*
X656809Y161551D01*
X655599Y160341D01*
X655025Y159347D01*
X653875D01*
X653301Y160341D01*
X652091Y161551D01*
X650609Y162407D01*
X648956Y162850D01*
X647244D01*
X645591Y162407D01*
X644109Y161551D01*
X642899Y160341D01*
X642325Y159347D01*
X641175D01*
X640601Y160341D01*
X639391Y161551D01*
X637909Y162407D01*
X636256Y162850D01*
X634544D01*
X632891Y162407D01*
X631409Y161551D01*
X630199Y160341D01*
X629625Y159347D01*
X628475D01*
X627901Y160341D01*
X626691Y161551D01*
X625209Y162407D01*
X623556Y162850D01*
X621844D01*
X620191Y162407D01*
X618709Y161551D01*
X617499Y160341D01*
X616925Y159347D01*
X615775D01*
X615201Y160341D01*
X613991Y161551D01*
X612509Y162407D01*
X610856Y162850D01*
X609144D01*
X607491Y162407D01*
X606009Y161551D01*
X604799Y160341D01*
X604225Y159347D01*
X603075D01*
X602501Y160341D01*
X601291Y161551D01*
X599809Y162407D01*
X598156Y162850D01*
X596444D01*
X594791Y162407D01*
X593309Y161551D01*
X592099Y160341D01*
X591525Y159347D01*
X590375D01*
X589801Y160341D01*
X588591Y161551D01*
X587109Y162407D01*
X585456Y162850D01*
X583744D01*
X582091Y162407D01*
X580609Y161551D01*
X579399Y160341D01*
X578825Y159347D01*
X577675D01*
X577101Y160341D01*
X575891Y161551D01*
X574409Y162407D01*
X572756Y162850D01*
X571044D01*
X569391Y162407D01*
X567909Y161551D01*
X566699Y160341D01*
X566125Y159347D01*
X564975D01*
X564401Y160341D01*
X563191Y161551D01*
X561709Y162407D01*
X560056Y162850D01*
X558344D01*
X556691Y162407D01*
X555209Y161551D01*
X553999Y160341D01*
X553425Y159347D01*
X552275D01*
X551701Y160341D01*
X550491Y161551D01*
X549009Y162407D01*
X547356Y162850D01*
X545644D01*
X543991Y162407D01*
X542509Y161551D01*
X541299Y160341D01*
X540443Y158859D01*
X540000Y157206D01*
Y155494D01*
X540443Y153841D01*
X541299Y152359D01*
X542509Y151149D01*
X543503Y150575D01*
Y149425D01*
X542509Y148851D01*
X541299Y147641D01*
X540443Y146159D01*
X540000Y144506D01*
Y142794D01*
X540443Y141141D01*
X541299Y139659D01*
X542509Y138449D01*
X543991Y137593D01*
X545644Y137150D01*
X547356D01*
X549009Y137593D01*
X550491Y138449D01*
X551701Y139659D01*
X552275Y140653D01*
X553425D01*
X553999Y139659D01*
X555209Y138449D01*
X556691Y137593D01*
X558344Y137150D01*
X560056D01*
X561709Y137593D01*
X563191Y138449D01*
X564401Y139659D01*
X564975Y140653D01*
X566125D01*
X566699Y139659D01*
X567909Y138449D01*
X569391Y137593D01*
X571044Y137150D01*
X572756D01*
X574409Y137593D01*
X575891Y138449D01*
X577101Y139659D01*
X577675Y140653D01*
X578825D01*
X579399Y139659D01*
X580609Y138449D01*
X582091Y137593D01*
X583744Y137150D01*
X585456D01*
X587109Y137593D01*
X588591Y138449D01*
X589801Y139659D01*
X590375Y140653D01*
X591525D01*
X592099Y139659D01*
X593309Y138449D01*
X594791Y137593D01*
X596444Y137150D01*
X598156D01*
X599809Y137593D01*
X601291Y138449D01*
X602501Y139659D01*
X603075Y140653D01*
X604225D01*
X604799Y139659D01*
X606009Y138449D01*
X607491Y137593D01*
X609144Y137150D01*
X610856D01*
X612509Y137593D01*
X613991Y138449D01*
X615201Y139659D01*
X615775Y140653D01*
X616925D01*
X617499Y139659D01*
X618709Y138449D01*
X620191Y137593D01*
X621844Y137150D01*
X623556D01*
X625209Y137593D01*
X626691Y138449D01*
X627901Y139659D01*
X628475Y140653D01*
X629625D01*
X630199Y139659D01*
X631409Y138449D01*
X632891Y137593D01*
X634544Y137150D01*
X636256D01*
X637909Y137593D01*
X639391Y138449D01*
X640601Y139659D01*
X641175Y140653D01*
X642325D01*
X642899Y139659D01*
X644109Y138449D01*
X645591Y137593D01*
X647244Y137150D01*
X648956D01*
X650609Y137593D01*
X652091Y138449D01*
X653301Y139659D01*
X653875Y140653D01*
X655025D01*
X655599Y139659D01*
X656809Y138449D01*
X658291Y137593D01*
X659944Y137150D01*
X661656D01*
X663309Y137593D01*
X664791Y138449D01*
X666001Y139659D01*
X666857Y141141D01*
X667300Y142794D01*
Y144506D01*
X666857Y146159D01*
X666001Y147641D01*
X664791Y148851D01*
X663797Y149425D01*
Y150575D01*
X664791Y151149D01*
X666001Y152359D01*
X666857Y153841D01*
X667300Y155494D01*
Y157206D01*
X666857Y158859D01*
X666001Y160341D01*
X664791Y161551D01*
X663309Y162407D01*
X661656Y162850D01*
D02*
G37*
G36*
X413895Y167500D02*
X412105D01*
X410451Y166815D01*
X409185Y165549D01*
X408500Y163895D01*
Y162105D01*
X409185Y160451D01*
X410451Y159185D01*
X412105Y158500D01*
X413895D01*
X415549Y159185D01*
X416815Y160451D01*
X417500Y162105D01*
Y163895D01*
X416815Y165549D01*
X415549Y166815D01*
X413895Y167500D01*
D02*
G37*
G36*
X378895D02*
X377105D01*
X375451Y166815D01*
X374185Y165549D01*
X373500Y163895D01*
Y162105D01*
X374185Y160451D01*
X375451Y159185D01*
X377105Y158500D01*
X378895D01*
X380549Y159185D01*
X381815Y160451D01*
X382500Y162105D01*
Y163895D01*
X381815Y165549D01*
X380549Y166815D01*
X378895Y167500D01*
D02*
G37*
G36*
X306895Y159500D02*
X305105D01*
X303451Y158815D01*
X302185Y157549D01*
X301500Y155895D01*
Y154105D01*
X302185Y152451D01*
X303451Y151185D01*
X305105Y150500D01*
X306895D01*
X308549Y151185D01*
X309815Y152451D01*
X310500Y154105D01*
Y155895D01*
X309815Y157549D01*
X308549Y158815D01*
X306895Y159500D01*
D02*
G37*
G36*
X695146Y155182D02*
X693356D01*
X691702Y154496D01*
X690436Y153231D01*
X689751Y151577D01*
Y149787D01*
X690436Y148133D01*
X691702Y146867D01*
X693356Y146182D01*
X695146D01*
X696800Y146867D01*
X698066Y148133D01*
X698751Y149787D01*
Y151577D01*
X698066Y153231D01*
X696800Y154496D01*
X695146Y155182D01*
D02*
G37*
G36*
X281895Y154500D02*
X280105D01*
X278451Y153815D01*
X277185Y152549D01*
X276500Y150895D01*
Y149105D01*
X277185Y147451D01*
X278451Y146185D01*
X280105Y145500D01*
X281895D01*
X283549Y146185D01*
X284815Y147451D01*
X285500Y149105D01*
Y150895D01*
X284815Y152549D01*
X283549Y153815D01*
X281895Y154500D01*
D02*
G37*
G36*
X759895Y152500D02*
X758105D01*
X756451Y151815D01*
X755185Y150549D01*
X754500Y148895D01*
Y147105D01*
X755185Y145451D01*
X756451Y144185D01*
X758105Y143500D01*
X759895D01*
X761549Y144185D01*
X762815Y145451D01*
X763500Y147105D01*
Y148895D01*
X762815Y150549D01*
X761549Y151815D01*
X759895Y152500D01*
D02*
G37*
G36*
X207895D02*
X206105D01*
X204451Y151815D01*
X203185Y150549D01*
X202500Y148895D01*
Y147105D01*
X203185Y145451D01*
X204451Y144185D01*
X206105Y143500D01*
X207895D01*
X209549Y144185D01*
X210815Y145451D01*
X211500Y147105D01*
Y148895D01*
X210815Y150549D01*
X209549Y151815D01*
X207895Y152500D01*
D02*
G37*
G36*
X446895Y151500D02*
X445105D01*
X443451Y150815D01*
X442185Y149549D01*
X441500Y147895D01*
Y146105D01*
X442185Y144451D01*
X443451Y143185D01*
X445105Y142500D01*
X446895D01*
X448549Y143185D01*
X449815Y144451D01*
X450500Y146105D01*
Y147895D01*
X449815Y149549D01*
X448549Y150815D01*
X446895Y151500D01*
D02*
G37*
G36*
X315895Y140500D02*
X314105D01*
X312451Y139815D01*
X311185Y138549D01*
X310500Y136895D01*
Y135105D01*
X311185Y133451D01*
X312451Y132185D01*
X314105Y131500D01*
X315895D01*
X317549Y132185D01*
X318815Y133451D01*
X319500Y135105D01*
Y136895D01*
X318815Y138549D01*
X317549Y139815D01*
X315895Y140500D01*
D02*
G37*
G36*
X207895Y133500D02*
X206105D01*
X204451Y132815D01*
X203185Y131549D01*
X202500Y129895D01*
Y128105D01*
X203185Y126451D01*
X204451Y125185D01*
X206105Y124500D01*
X207895D01*
X209549Y125185D01*
X210815Y126451D01*
X211500Y128105D01*
Y129895D01*
X210815Y131549D01*
X209549Y132815D01*
X207895Y133500D01*
D02*
G37*
G36*
X512895Y123500D02*
X511105D01*
X509451Y122815D01*
X508185Y121549D01*
X507519Y119941D01*
X507342Y119878D01*
X506500Y119789D01*
X506104Y120745D01*
X504838Y122011D01*
X503184Y122697D01*
X501394D01*
X499740Y122011D01*
X498474Y120745D01*
X498104Y119852D01*
X497021D01*
X496827Y120322D01*
X495561Y121588D01*
X493907Y122273D01*
X492117D01*
X490463Y121588D01*
X489197Y120322D01*
X488512Y118668D01*
Y116878D01*
X489197Y115224D01*
X490463Y113958D01*
X492117Y113273D01*
X493907D01*
X495561Y113958D01*
X496827Y115224D01*
X497197Y116118D01*
X498279D01*
X498474Y115647D01*
X499740Y114382D01*
X501394Y113696D01*
X503184D01*
X504838Y114382D01*
X506104Y115647D01*
X506770Y117255D01*
X506946Y117318D01*
X507789Y117408D01*
X508185Y116451D01*
X509451Y115185D01*
X511105Y114500D01*
X512895D01*
X514549Y115185D01*
X515815Y116451D01*
X516500Y118105D01*
Y119895D01*
X515815Y121549D01*
X514549Y122815D01*
X512895Y123500D01*
D02*
G37*
G36*
X541370Y126756D02*
X539580D01*
X537926Y126071D01*
X536660Y124805D01*
X535975Y123151D01*
Y121361D01*
X536660Y119707D01*
X537926Y118441D01*
X539580Y117756D01*
X541370D01*
X543024Y118441D01*
X544290Y119707D01*
X544975Y121361D01*
Y123151D01*
X544290Y124805D01*
X543024Y126071D01*
X541370Y126756D01*
D02*
G37*
G36*
X642895Y126500D02*
X641105D01*
X639451Y125815D01*
X638185Y124549D01*
X637500Y122895D01*
Y121105D01*
X638185Y119451D01*
X639451Y118185D01*
X641105Y117500D01*
X642895D01*
X644549Y118185D01*
X645815Y119451D01*
X646500Y121105D01*
Y122895D01*
X645815Y124549D01*
X644549Y125815D01*
X642895Y126500D01*
D02*
G37*
G36*
X613388Y125880D02*
X611598D01*
X609944Y125195D01*
X608678Y123930D01*
X607993Y122276D01*
Y120485D01*
X608678Y118831D01*
X609944Y117566D01*
X611598Y116881D01*
X613388D01*
X615042Y117566D01*
X616308Y118831D01*
X616993Y120485D01*
Y122276D01*
X616308Y123930D01*
X615042Y125195D01*
X613388Y125880D01*
D02*
G37*
G36*
X659895Y119500D02*
X658105D01*
X656451Y118815D01*
X655185Y117549D01*
X654500Y115895D01*
Y114105D01*
X655185Y112451D01*
X656451Y111185D01*
X658105Y110500D01*
X659895D01*
X661549Y111185D01*
X662815Y112451D01*
X663500Y114105D01*
Y115895D01*
X662815Y117549D01*
X661549Y118815D01*
X659895Y119500D01*
D02*
G37*
G36*
X623895Y113500D02*
X622105D01*
X620451Y112815D01*
X619185Y111549D01*
X618500Y109895D01*
Y108105D01*
X619185Y106451D01*
X620451Y105185D01*
X622105Y104500D01*
X623895D01*
X625549Y105185D01*
X626815Y106451D01*
X627500Y108105D01*
Y109895D01*
X626815Y111549D01*
X625549Y112815D01*
X623895Y113500D01*
D02*
G37*
G36*
X59895Y109500D02*
X58105D01*
X56451Y108815D01*
X55185Y107549D01*
X54500Y105895D01*
Y104105D01*
X55185Y102451D01*
X56451Y101185D01*
X58105Y100500D01*
X59895D01*
X61549Y101185D01*
X62815Y102451D01*
X63500Y104105D01*
Y105895D01*
X62815Y107549D01*
X61549Y108815D01*
X59895Y109500D01*
D02*
G37*
G36*
X603855Y107412D02*
X602065D01*
X600411Y106727D01*
X599145Y105461D01*
X598460Y103807D01*
Y102017D01*
X599145Y100363D01*
X600411Y99097D01*
X602065Y98412D01*
X603855D01*
X605509Y99097D01*
X606775Y100363D01*
X607460Y102017D01*
Y103807D01*
X606775Y105461D01*
X605509Y106727D01*
X603855Y107412D01*
D02*
G37*
G36*
X568660Y105017D02*
X566870D01*
X565216Y104332D01*
X563950Y103066D01*
X563265Y101412D01*
Y99622D01*
X563950Y97968D01*
X565216Y96702D01*
X566870Y96017D01*
X568660D01*
X570314Y96702D01*
X571580Y97968D01*
X571756Y98393D01*
X572838D01*
X573315Y97241D01*
X574581Y95975D01*
X576235Y95290D01*
X578025D01*
X579679Y95975D01*
X580945Y97241D01*
X581630Y98895D01*
Y100685D01*
X580945Y102339D01*
X579679Y103605D01*
X578025Y104290D01*
X576235D01*
X574581Y103605D01*
X573315Y102339D01*
X573139Y101915D01*
X572057D01*
X571580Y103066D01*
X570314Y104332D01*
X568660Y105017D01*
D02*
G37*
G36*
X588895Y101412D02*
X587105D01*
X585451Y100727D01*
X584185Y99461D01*
X583500Y97807D01*
Y96017D01*
X584185Y94363D01*
X585451Y93097D01*
X587105Y92412D01*
X588895D01*
X590549Y93097D01*
X591815Y94363D01*
X592500Y96017D01*
Y97807D01*
X591815Y99461D01*
X590549Y100727D01*
X588895Y101412D01*
D02*
G37*
G36*
X412895Y100500D02*
X411105D01*
X409451Y99815D01*
X408185Y98549D01*
X407500Y96895D01*
Y95105D01*
X408185Y93451D01*
X409451Y92185D01*
X411105Y91500D01*
X412895D01*
X414549Y92185D01*
X415815Y93451D01*
X416500Y95105D01*
Y96895D01*
X415815Y98549D01*
X414549Y99815D01*
X412895Y100500D01*
D02*
G37*
G36*
X195895Y94500D02*
X194105D01*
X192451Y93815D01*
X191185Y92549D01*
X190500Y90895D01*
Y89105D01*
X191185Y87451D01*
X192451Y86185D01*
X194105Y85500D01*
X195895D01*
X197549Y86185D01*
X198815Y87451D01*
X199500Y89105D01*
Y90895D01*
X198815Y92549D01*
X197549Y93815D01*
X195895Y94500D01*
D02*
G37*
G36*
X445895Y88500D02*
X444105D01*
X442451Y87815D01*
X441185Y86549D01*
X440500Y84895D01*
Y83105D01*
X441185Y81451D01*
X442451Y80185D01*
X444105Y79500D01*
X445895D01*
X447549Y80185D01*
X448815Y81451D01*
X449500Y83105D01*
Y84895D01*
X448815Y86549D01*
X447549Y87815D01*
X445895Y88500D01*
D02*
G37*
G36*
X59895Y87500D02*
X58105D01*
X56451Y86815D01*
X55185Y85549D01*
X54500Y83895D01*
Y82105D01*
X55185Y80451D01*
X56451Y79185D01*
X58105Y78500D01*
X59895D01*
X61549Y79185D01*
X62815Y80451D01*
X63500Y82105D01*
Y83895D01*
X62815Y85549D01*
X61549Y86815D01*
X59895Y87500D01*
D02*
G37*
G36*
X337895Y82500D02*
X336105D01*
X334451Y81815D01*
X333185Y80549D01*
X332500Y78895D01*
Y77105D01*
X333185Y75451D01*
X334451Y74185D01*
X336105Y73500D01*
X337895D01*
X339549Y74185D01*
X340815Y75451D01*
X341500Y77105D01*
Y78895D01*
X340815Y80549D01*
X339549Y81815D01*
X337895Y82500D01*
D02*
G37*
G36*
X218895Y81500D02*
X217105D01*
X215451Y80815D01*
X214185Y79549D01*
X213500Y77895D01*
Y76105D01*
X214185Y74451D01*
X215451Y73185D01*
X217105Y72500D01*
X218895D01*
X220549Y73185D01*
X221815Y74451D01*
X222500Y76105D01*
Y77895D01*
X221815Y79549D01*
X220549Y80815D01*
X218895Y81500D01*
D02*
G37*
G36*
X59895Y68500D02*
X58105D01*
X56451Y67815D01*
X55185Y66549D01*
X54500Y64895D01*
Y63105D01*
X55185Y61451D01*
X56451Y60185D01*
X58105Y59500D01*
X59895D01*
X61549Y60185D01*
X62815Y61451D01*
X63500Y63105D01*
Y64895D01*
X62815Y66549D01*
X61549Y67815D01*
X59895Y68500D01*
D02*
G37*
G36*
X234895Y66500D02*
X233105D01*
X231451Y65815D01*
X230185Y64549D01*
X229500Y62895D01*
Y61105D01*
X230185Y59451D01*
X231451Y58185D01*
X233105Y57500D01*
X234895D01*
X236549Y58185D01*
X237815Y59451D01*
X238500Y61105D01*
Y62895D01*
X237815Y64549D01*
X236549Y65815D01*
X234895Y66500D01*
D02*
G37*
G36*
X660895Y58500D02*
X659105D01*
X657451Y57815D01*
X656185Y56549D01*
X655500Y54895D01*
Y53105D01*
X656185Y51451D01*
X657451Y50185D01*
X659105Y49500D01*
X660895D01*
X662549Y50185D01*
X663815Y51451D01*
X664500Y53105D01*
Y54895D01*
X663815Y56549D01*
X662549Y57815D01*
X660895Y58500D01*
D02*
G37*
G36*
X301238Y57576D02*
X299447D01*
X297794Y56891D01*
X296528Y55625D01*
X295843Y53971D01*
Y52181D01*
X296528Y50527D01*
X297794Y49261D01*
X299447Y48576D01*
X301238D01*
X302892Y49261D01*
X304158Y50527D01*
X304842Y52181D01*
Y53971D01*
X304158Y55625D01*
X302892Y56891D01*
X301238Y57576D01*
D02*
G37*
G36*
X491895Y57005D02*
X490105D01*
X488451Y56319D01*
X487185Y55054D01*
X486500Y53400D01*
Y51610D01*
X487185Y49956D01*
X488451Y48690D01*
X490105Y48005D01*
X491895D01*
X493549Y48690D01*
X494815Y49956D01*
X495500Y51610D01*
Y53400D01*
X494815Y55054D01*
X493549Y56319D01*
X491895Y57005D01*
D02*
G37*
G36*
X480078D02*
X478288D01*
X476634Y56319D01*
X475368Y55054D01*
X474683Y53400D01*
Y51610D01*
X475368Y49956D01*
X476634Y48690D01*
X478288Y48005D01*
X480078D01*
X481732Y48690D01*
X482998Y49956D01*
X483683Y51610D01*
Y53400D01*
X482998Y55054D01*
X481732Y56319D01*
X480078Y57005D01*
D02*
G37*
G36*
X312512Y48508D02*
X310722D01*
X309068Y47823D01*
X307802Y46557D01*
X307117Y44903D01*
Y43113D01*
X307802Y41459D01*
X309068Y40193D01*
X310722Y39508D01*
X312512D01*
X314166Y40193D01*
X315432Y41459D01*
X316117Y43113D01*
Y44903D01*
X315432Y46557D01*
X314166Y47823D01*
X312512Y48508D01*
D02*
G37*
G36*
X249772Y48467D02*
X247982D01*
X246328Y47782D01*
X245062Y46516D01*
X244377Y44862D01*
Y43071D01*
X245062Y41417D01*
X246328Y40152D01*
X247982Y39467D01*
X249772D01*
X251426Y40152D01*
X252692Y41417D01*
X253377Y43071D01*
Y44862D01*
X252692Y46516D01*
X251426Y47782D01*
X249772Y48467D01*
D02*
G37*
G36*
X99895Y38500D02*
X98105D01*
X96451Y37815D01*
X95185Y36549D01*
X94500Y34895D01*
Y33105D01*
X95185Y31451D01*
X96451Y30185D01*
X98105Y29500D01*
X99895D01*
X101549Y30185D01*
X102815Y31451D01*
X103500Y33105D01*
Y34895D01*
X102815Y36549D01*
X101549Y37815D01*
X99895Y38500D01*
D02*
G37*
G36*
X503895Y36500D02*
X502105D01*
X500451Y35815D01*
X499185Y34549D01*
X498500Y32895D01*
Y31105D01*
X499185Y29451D01*
X500451Y28185D01*
X502105Y27500D01*
X503895D01*
X505549Y28185D01*
X506815Y29451D01*
X507500Y31105D01*
Y32895D01*
X506815Y34549D01*
X505549Y35815D01*
X503895Y36500D01*
D02*
G37*
%LPD*%
D12*
X10000Y30000D02*
G03*
X30000Y10000I20000J0D01*
G01*
Y790000D02*
G03*
X10000Y770000I0J-20000D01*
G01*
X790000Y10000D02*
G03*
X810000Y29959I0J20000D01*
G01*
X810000Y770000D02*
G03*
X790000Y790000I-20000J0D01*
G01*
X10000Y75128D02*
Y100748D01*
Y30050D02*
Y100748D01*
X10000Y109288D02*
Y169068D01*
X30000Y10000D02*
X46944D01*
X30000D02*
X98184D01*
X10000Y408188D02*
Y425268D01*
Y527748D02*
Y544828D01*
Y510668D02*
Y544828D01*
X30000Y790000D02*
X106530D01*
X149229D01*
X260249D02*
X337109D01*
X106530D02*
X166309D01*
X337109D02*
X379809D01*
X337109D02*
X431049D01*
X30000Y10000D02*
X593503D01*
X653283D01*
X593503D02*
X670363D01*
X730143D02*
X755763D01*
X730143D02*
X790000D01*
X810000Y109738D02*
Y246378D01*
X810000Y254918D02*
Y391558D01*
X431049Y790000D02*
X465209D01*
X431049D02*
X601849D01*
X810000Y494037D02*
Y511117D01*
Y468418D02*
Y511117D01*
Y400098D02*
Y511117D01*
X810000Y553817D02*
Y570897D01*
X601849Y790000D02*
X790000D01*
X30000Y10000D02*
X217744D01*
X10000Y408188D02*
Y544828D01*
X10000Y698548D02*
Y770000D01*
X106530Y790000D02*
X337109D01*
X593503Y10000D02*
X730143D01*
X810000Y30000D02*
Y101198D01*
X810000Y511117D02*
Y545277D01*
X810000Y553817D02*
Y690457D01*
X10000Y109288D02*
Y245928D01*
X10000Y254468D02*
Y399648D01*
X10000Y553368D02*
Y690008D01*
X810000Y698997D02*
Y770000D01*
X10000Y100748D02*
X10000Y109288D01*
Y245928D02*
X10000Y254468D01*
Y399648D02*
X10000Y408188D01*
Y544828D02*
X10000Y553368D01*
Y690008D02*
X10000Y698548D01*
X810000Y101198D02*
X810000Y109738D01*
Y246378D02*
X810000Y254918D01*
Y391558D02*
X810000Y400098D01*
Y545277D02*
X810000Y553817D01*
Y690457D02*
X810000Y698997D01*
Y770000D02*
Y770000D01*
D13*
X595200Y318300D02*
D03*
X641200Y696300D02*
D03*
Y586300D02*
D03*
Y366300D02*
D03*
X595200Y648300D02*
D03*
X641200Y476300D02*
D03*
X595200Y538300D02*
D03*
Y428300D02*
D03*
D19*
X752313Y584313D02*
X752836Y584835D01*
Y586957D01*
X753410Y587531D01*
X752313Y404222D02*
Y584313D01*
X775696Y102304D02*
X790000Y116608D01*
X752313Y404222D02*
X790000Y366535D01*
Y116608D02*
Y366535D01*
X769000Y96000D02*
X777877D01*
X757313Y420744D02*
X797000Y381057D01*
Y115123D02*
Y381057D01*
X777877Y96000D02*
X797000Y115123D01*
X757313Y420744D02*
Y486313D01*
X780000Y509000D01*
D24*
X673500Y156350D02*
D03*
Y143650D02*
D03*
X660800Y156350D02*
D03*
Y143650D02*
D03*
X610000D02*
D03*
X622700D02*
D03*
X635400D02*
D03*
X648100D02*
D03*
X622700Y156350D02*
D03*
X610000D02*
D03*
X597300D02*
D03*
X584600D02*
D03*
X559200D02*
D03*
X571900D02*
D03*
X546500D02*
D03*
Y143650D02*
D03*
X559200D02*
D03*
X571900D02*
D03*
X584600D02*
D03*
X597300D02*
D03*
X648100Y156350D02*
D03*
X635400D02*
D03*
D26*
X585200Y438300D02*
D03*
Y548300D02*
D03*
X631200Y486300D02*
D03*
X585200Y658300D02*
D03*
X631200Y376300D02*
D03*
Y596300D02*
D03*
Y706300D02*
D03*
X585200Y328300D02*
D03*
X605200D02*
D03*
X651200Y706300D02*
D03*
Y596300D02*
D03*
Y376300D02*
D03*
X605200Y658300D02*
D03*
X651200Y486300D02*
D03*
X605200Y548300D02*
D03*
Y438300D02*
D03*
D27*
X282600Y340000D02*
D03*
X96000D02*
D03*
X375900D02*
D03*
X96000Y405000D02*
D03*
X189300D02*
D03*
X282600D02*
D03*
X375900D02*
D03*
X189300Y470000D02*
D03*
X282600D02*
D03*
X96000D02*
D03*
X375900D02*
D03*
X96000Y535000D02*
D03*
X189300D02*
D03*
X282600D02*
D03*
X375900D02*
D03*
X189300Y600000D02*
D03*
X282600D02*
D03*
X96000D02*
D03*
X375900D02*
D03*
X189300Y665000D02*
D03*
X282600D02*
D03*
X375900D02*
D03*
X96000D02*
D03*
X189300Y340000D02*
D03*
X207300Y352700D02*
D03*
Y327300D02*
D03*
X114000Y677700D02*
D03*
Y652300D02*
D03*
X393900Y677700D02*
D03*
Y652300D02*
D03*
X300600D02*
D03*
Y677700D02*
D03*
X207300D02*
D03*
Y652300D02*
D03*
X393900Y612700D02*
D03*
Y587300D02*
D03*
X114000D02*
D03*
Y612700D02*
D03*
X300600D02*
D03*
Y587300D02*
D03*
X207300D02*
D03*
Y612700D02*
D03*
X393900Y547700D02*
D03*
Y522300D02*
D03*
X300600D02*
D03*
Y547700D02*
D03*
X207300D02*
D03*
Y522300D02*
D03*
X114000D02*
D03*
Y547700D02*
D03*
X393900Y482700D02*
D03*
Y457300D02*
D03*
X114000D02*
D03*
Y482700D02*
D03*
X300600D02*
D03*
Y457300D02*
D03*
X207300D02*
D03*
Y482700D02*
D03*
X393900Y417700D02*
D03*
Y392300D02*
D03*
X300600D02*
D03*
Y417700D02*
D03*
X207300D02*
D03*
Y392300D02*
D03*
X114000D02*
D03*
Y417700D02*
D03*
X393900Y352700D02*
D03*
Y327300D02*
D03*
X114000D02*
D03*
Y352700D02*
D03*
X300600D02*
D03*
Y327300D02*
D03*
D28*
X62230Y273130D02*
D03*
X75230D02*
D03*
X62230Y260130D02*
D03*
Y286130D02*
D03*
X75230D02*
D03*
X62230Y299130D02*
D03*
X75230D02*
D03*
Y260130D02*
D03*
D29*
X635605Y226500D02*
D03*
X659000Y115000D02*
D03*
X623000Y109000D02*
D03*
X265000Y576000D02*
D03*
X527000Y569000D02*
D03*
X455000Y627000D02*
D03*
X453000Y316000D02*
D03*
X501340Y497728D02*
D03*
X467000Y413000D02*
D03*
X455000Y471000D02*
D03*
X413000Y163000D02*
D03*
X315000Y136000D02*
D03*
X306000Y155000D02*
D03*
X371000Y181000D02*
D03*
X705000Y433000D02*
D03*
X768000Y309000D02*
D03*
Y300000D02*
D03*
X484736Y224188D02*
D03*
X680529Y67948D02*
D03*
X672772Y79000D02*
D03*
X469000Y156000D02*
D03*
X439500Y691000D02*
D03*
X438140Y548000D02*
D03*
X439000Y398000D02*
D03*
X224000Y269000D02*
D03*
X362000Y265000D02*
D03*
X224000Y258000D02*
D03*
Y248000D02*
D03*
X425580Y186335D02*
D03*
X362779Y164827D02*
D03*
X426000Y82000D02*
D03*
X362494Y67128D02*
D03*
X360000Y54000D02*
D03*
X566000Y696000D02*
D03*
X756220Y325794D02*
D03*
X768112Y287644D02*
D03*
X319001Y486573D02*
D03*
X300343Y53076D02*
D03*
X420125Y345041D02*
D03*
X389000Y206000D02*
D03*
X412000Y96000D02*
D03*
X588000Y96912D02*
D03*
X450850Y283250D02*
D03*
Y588010D02*
D03*
X546000Y178000D02*
D03*
X254000Y445000D02*
D03*
X280000Y252000D02*
D03*
X281000Y150000D02*
D03*
X336000Y181000D02*
D03*
X445000Y84000D02*
D03*
X446000Y147000D02*
D03*
X444000Y189000D02*
D03*
X740000Y336000D02*
D03*
X753000Y641000D02*
D03*
X487680Y386119D02*
D03*
X558000Y185000D02*
D03*
X780000Y509000D02*
D03*
X480502Y189636D02*
D03*
X753410Y587531D02*
D03*
X739047Y741383D02*
D03*
X689000Y676000D02*
D03*
X688000Y722000D02*
D03*
X720000Y571000D02*
D03*
X696120Y702907D02*
D03*
X572000Y193000D02*
D03*
X585000Y200000D02*
D03*
X705000Y586000D02*
D03*
X692625Y481153D02*
D03*
X481634Y677807D02*
D03*
X481476Y520744D02*
D03*
X689000Y561000D02*
D03*
Y543000D02*
D03*
Y615000D02*
D03*
Y606000D02*
D03*
X147000Y224000D02*
D03*
Y214333D02*
D03*
Y195000D02*
D03*
Y204667D02*
D03*
X389000Y239000D02*
D03*
X660681Y634394D02*
D03*
X411074Y681557D02*
D03*
X319000Y421000D02*
D03*
X320000Y616000D02*
D03*
X237000Y690000D02*
D03*
Y625000D02*
D03*
X235702Y559766D02*
D03*
X236000Y495000D02*
D03*
X572763Y394000D02*
D03*
X143000Y365000D02*
D03*
Y431000D02*
D03*
Y496000D02*
D03*
Y562000D02*
D03*
Y626000D02*
D03*
X144000Y690000D02*
D03*
X527000Y356000D02*
D03*
X514000Y346000D02*
D03*
X502289Y118196D02*
D03*
X378000Y163000D02*
D03*
X337000Y78000D02*
D03*
X740529Y391773D02*
D03*
X750000Y693000D02*
D03*
Y685000D02*
D03*
X597000Y206000D02*
D03*
X673000Y194000D02*
D03*
X679000Y201000D02*
D03*
X685000Y207000D02*
D03*
X526986Y510286D02*
D03*
X513993Y503199D02*
D03*
X500914Y337554D02*
D03*
X526876Y716097D02*
D03*
X514004Y709130D02*
D03*
X488178Y696500D02*
D03*
X500829Y703123D02*
D03*
X514117Y561604D02*
D03*
X488006Y645500D02*
D03*
X514029Y397554D02*
D03*
X501213Y395522D02*
D03*
X690052Y214834D02*
D03*
X623070Y220500D02*
D03*
X610000Y213000D02*
D03*
X702451Y350106D02*
D03*
X567765Y100517D02*
D03*
X493012Y117773D02*
D03*
X530000Y296000D02*
D03*
X487654Y546767D02*
D03*
X481566Y621033D02*
D03*
X487680Y491340D02*
D03*
X481471Y464455D02*
D03*
X527050Y403860D02*
D03*
X545000Y406000D02*
D03*
X9969Y749788D02*
D03*
Y758327D02*
D03*
Y766868D02*
D03*
X10720Y775374D02*
D03*
X14728Y782916D02*
D03*
X21494Y788126D02*
D03*
X29815Y790049D02*
D03*
X527000Y670000D02*
D03*
X501056Y653782D02*
D03*
X514175Y662032D02*
D03*
X451753Y430107D02*
D03*
X689000Y329000D02*
D03*
X753500Y375076D02*
D03*
X740806Y377000D02*
D03*
X766443Y362576D02*
D03*
X695854Y656879D02*
D03*
X696000Y731000D02*
D03*
X786056Y382228D02*
D03*
X779521Y368530D02*
D03*
X779420Y390152D02*
D03*
X763313Y424443D02*
D03*
X743243Y436534D02*
D03*
X769000Y96000D02*
D03*
X775696Y102304D02*
D03*
X745216Y510006D02*
D03*
X691116Y350850D02*
D03*
X551000Y200000D02*
D03*
X488538Y304756D02*
D03*
X487680Y331054D02*
D03*
X551100Y316129D02*
D03*
X539840Y494604D02*
D03*
X576000Y490000D02*
D03*
X545840Y623704D02*
D03*
X500840Y554614D02*
D03*
X512000Y119000D02*
D03*
X736103Y433152D02*
D03*
X669000Y454000D02*
D03*
X564847Y453324D02*
D03*
X27000Y227000D02*
D03*
X9969Y203228D02*
D03*
Y211768D02*
D03*
Y220308D02*
D03*
Y228848D02*
D03*
Y237388D02*
D03*
Y245928D02*
D03*
Y254468D02*
D03*
Y263008D02*
D03*
Y271548D02*
D03*
Y280088D02*
D03*
Y288628D02*
D03*
Y297168D02*
D03*
Y305708D02*
D03*
Y314248D02*
D03*
Y322788D02*
D03*
X9969Y331328D02*
D03*
Y339868D02*
D03*
Y348408D02*
D03*
Y356948D02*
D03*
Y365488D02*
D03*
Y374028D02*
D03*
Y382568D02*
D03*
Y391108D02*
D03*
Y399648D02*
D03*
Y408188D02*
D03*
Y416728D02*
D03*
Y425268D02*
D03*
Y433808D02*
D03*
Y442348D02*
D03*
Y450888D02*
D03*
Y459428D02*
D03*
Y467968D02*
D03*
X9969Y476508D02*
D03*
Y485048D02*
D03*
Y493588D02*
D03*
Y502128D02*
D03*
Y510668D02*
D03*
Y519208D02*
D03*
Y527748D02*
D03*
Y536288D02*
D03*
Y544828D02*
D03*
Y553368D02*
D03*
Y561908D02*
D03*
Y570448D02*
D03*
Y578988D02*
D03*
Y587528D02*
D03*
Y596068D02*
D03*
Y604608D02*
D03*
Y613148D02*
D03*
Y621688D02*
D03*
X9969Y630228D02*
D03*
Y638768D02*
D03*
Y647308D02*
D03*
Y655848D02*
D03*
Y664388D02*
D03*
Y672928D02*
D03*
Y681468D02*
D03*
Y690008D02*
D03*
Y698548D02*
D03*
Y707088D02*
D03*
Y715628D02*
D03*
Y724167D02*
D03*
Y732708D02*
D03*
Y741247D02*
D03*
X371464Y9970D02*
D03*
X362924D02*
D03*
X354384D02*
D03*
X345844D02*
D03*
X337304D02*
D03*
X328764D02*
D03*
X320224D02*
D03*
X311684D02*
D03*
X303144D02*
D03*
X294604D02*
D03*
X286064D02*
D03*
X277524D02*
D03*
X268984D02*
D03*
X260444D02*
D03*
X251904D02*
D03*
X243364D02*
D03*
X234824D02*
D03*
X226284D02*
D03*
X217744D02*
D03*
X209204D02*
D03*
X200664D02*
D03*
X192124D02*
D03*
X183584D02*
D03*
X175044D02*
D03*
X166504D02*
D03*
X157964D02*
D03*
X149424D02*
D03*
X140884D02*
D03*
X132344D02*
D03*
X123804D02*
D03*
X115264D02*
D03*
X106724D02*
D03*
X98184D02*
D03*
X89644D02*
D03*
X81104D02*
D03*
X72564D02*
D03*
X64024D02*
D03*
X55484D02*
D03*
X46944D02*
D03*
X38404D02*
D03*
X29864Y9956D02*
D03*
X21538Y11856D02*
D03*
X14081Y16018D02*
D03*
X10886Y23938D02*
D03*
X9969Y32429D02*
D03*
Y40968D02*
D03*
Y49509D02*
D03*
Y58049D02*
D03*
Y66589D02*
D03*
Y75128D02*
D03*
Y83668D02*
D03*
Y92208D02*
D03*
Y100748D02*
D03*
Y109288D02*
D03*
Y117828D02*
D03*
Y126368D02*
D03*
Y134908D02*
D03*
Y143448D02*
D03*
Y151988D02*
D03*
Y160528D02*
D03*
Y169068D02*
D03*
Y177608D02*
D03*
X9969Y186148D02*
D03*
Y194688D02*
D03*
X810030Y126818D02*
D03*
Y118278D02*
D03*
Y109738D02*
D03*
Y101198D02*
D03*
Y92658D02*
D03*
Y84118D02*
D03*
Y75578D02*
D03*
Y67038D02*
D03*
Y58498D02*
D03*
Y49958D02*
D03*
Y41418D02*
D03*
Y32878D02*
D03*
X809220Y24377D02*
D03*
X805108Y16892D02*
D03*
X798270Y11776D02*
D03*
X789923Y9970D02*
D03*
X781383D02*
D03*
X772843D02*
D03*
X764303D02*
D03*
X755763D02*
D03*
X747223D02*
D03*
X738683D02*
D03*
X730143D02*
D03*
X721603D02*
D03*
X713063D02*
D03*
X704523D02*
D03*
X695983D02*
D03*
X687443D02*
D03*
X678903D02*
D03*
X670363D02*
D03*
X661823D02*
D03*
X653283D02*
D03*
X644743D02*
D03*
X636203D02*
D03*
X627663D02*
D03*
X619123D02*
D03*
X610583D02*
D03*
X602043D02*
D03*
X593503D02*
D03*
X584963D02*
D03*
X576423D02*
D03*
X567883D02*
D03*
X559343D02*
D03*
X550803D02*
D03*
X542263D02*
D03*
X533723D02*
D03*
X525183D02*
D03*
X516643D02*
D03*
X508103D02*
D03*
X499563D02*
D03*
X491023D02*
D03*
X482483D02*
D03*
X473943D02*
D03*
X465403D02*
D03*
X456863D02*
D03*
X448323D02*
D03*
X439783D02*
D03*
X431244D02*
D03*
X422704D02*
D03*
X414164D02*
D03*
X405624D02*
D03*
X397084D02*
D03*
X388544D02*
D03*
X380004D02*
D03*
X810030Y673377D02*
D03*
Y664837D02*
D03*
Y656297D02*
D03*
Y647757D02*
D03*
Y639217D02*
D03*
Y630677D02*
D03*
Y622137D02*
D03*
X810030Y613597D02*
D03*
Y605057D02*
D03*
Y596517D02*
D03*
Y587977D02*
D03*
Y579437D02*
D03*
Y570897D02*
D03*
Y562357D02*
D03*
Y553817D02*
D03*
Y545277D02*
D03*
Y536737D02*
D03*
Y528197D02*
D03*
Y519657D02*
D03*
Y511117D02*
D03*
Y502577D02*
D03*
Y494037D02*
D03*
Y485497D02*
D03*
Y476957D02*
D03*
X810030Y468418D02*
D03*
Y459878D02*
D03*
Y451338D02*
D03*
Y442798D02*
D03*
Y434258D02*
D03*
Y425718D02*
D03*
Y417178D02*
D03*
Y408638D02*
D03*
Y400098D02*
D03*
Y391558D02*
D03*
Y383018D02*
D03*
Y374478D02*
D03*
Y365938D02*
D03*
Y357398D02*
D03*
Y348858D02*
D03*
Y340318D02*
D03*
Y331778D02*
D03*
X810030Y323238D02*
D03*
Y314698D02*
D03*
Y306158D02*
D03*
Y297618D02*
D03*
Y289078D02*
D03*
Y280538D02*
D03*
Y271998D02*
D03*
Y263458D02*
D03*
Y254918D02*
D03*
Y246378D02*
D03*
Y237838D02*
D03*
Y229298D02*
D03*
Y220758D02*
D03*
Y212218D02*
D03*
Y203678D02*
D03*
Y195138D02*
D03*
Y186598D02*
D03*
Y178058D02*
D03*
X810030Y169518D02*
D03*
Y160978D02*
D03*
Y152438D02*
D03*
Y143898D02*
D03*
Y135358D02*
D03*
X371269Y790030D02*
D03*
X379809D02*
D03*
X388349D02*
D03*
X396889D02*
D03*
X405429D02*
D03*
X413969D02*
D03*
X422509D02*
D03*
X431049D02*
D03*
X439589D02*
D03*
X448129D02*
D03*
X456669D02*
D03*
X465209D02*
D03*
X473749D02*
D03*
X482289D02*
D03*
X490829D02*
D03*
X499369D02*
D03*
X507909D02*
D03*
X516449D02*
D03*
X524989D02*
D03*
X533529D02*
D03*
X542069D02*
D03*
X550609D02*
D03*
X559149D02*
D03*
X567689D02*
D03*
X576229D02*
D03*
X584769D02*
D03*
X593309D02*
D03*
X601849D02*
D03*
X610389D02*
D03*
X618929D02*
D03*
X627469D02*
D03*
X636009D02*
D03*
X644549D02*
D03*
X653089D02*
D03*
X661629D02*
D03*
X670169D02*
D03*
X678709D02*
D03*
X687249D02*
D03*
X695789D02*
D03*
X704329D02*
D03*
X712869D02*
D03*
X721409D02*
D03*
X729949D02*
D03*
X738489D02*
D03*
X747029D02*
D03*
X755569D02*
D03*
X764109D02*
D03*
X772649D02*
D03*
X781189D02*
D03*
X789729D02*
D03*
X798091Y788298D02*
D03*
X804983Y783255D02*
D03*
X809174Y775814D02*
D03*
X810030Y767317D02*
D03*
Y758777D02*
D03*
Y750237D02*
D03*
Y741697D02*
D03*
Y733157D02*
D03*
Y724617D02*
D03*
Y716077D02*
D03*
Y707537D02*
D03*
Y698997D02*
D03*
Y690457D02*
D03*
Y681917D02*
D03*
X694251Y150682D02*
D03*
X540475Y122256D02*
D03*
X642000Y122000D02*
D03*
X481578Y363276D02*
D03*
X466000Y724000D02*
D03*
X461506Y585320D02*
D03*
X99000Y34000D02*
D03*
X453000Y260000D02*
D03*
X759000Y148000D02*
D03*
X503000Y32000D02*
D03*
X479183Y52505D02*
D03*
X491000D02*
D03*
X698771Y20226D02*
D03*
X577130Y99790D02*
D03*
X612493Y121381D02*
D03*
X691843Y288654D02*
D03*
X684213Y185285D02*
D03*
X689322Y644458D02*
D03*
X696000Y524000D02*
D03*
X691000Y512000D02*
D03*
X778717Y638197D02*
D03*
X38210Y790030D02*
D03*
X46750D02*
D03*
X55290D02*
D03*
X63830D02*
D03*
X72370D02*
D03*
X80910D02*
D03*
X89450D02*
D03*
X97990D02*
D03*
X106530D02*
D03*
X115070D02*
D03*
X123610D02*
D03*
X132149D02*
D03*
X140689D02*
D03*
X149229D02*
D03*
X157769D02*
D03*
X166309D02*
D03*
X174849D02*
D03*
X183389D02*
D03*
X191929D02*
D03*
X200469D02*
D03*
X209009D02*
D03*
X217549D02*
D03*
X226089D02*
D03*
X234629D02*
D03*
X243169D02*
D03*
X251709D02*
D03*
X260249D02*
D03*
X268789D02*
D03*
X277329D02*
D03*
X285869D02*
D03*
X294409D02*
D03*
X302949D02*
D03*
X311489D02*
D03*
X320029D02*
D03*
X328569D02*
D03*
X337109D02*
D03*
X345649D02*
D03*
X354189D02*
D03*
X362729D02*
D03*
X543069Y414898D02*
D03*
X541388Y637084D02*
D03*
X714000Y392000D02*
D03*
X726777Y385000D02*
D03*
X660818Y409692D02*
D03*
X575000Y572000D02*
D03*
X199000Y311000D02*
D03*
X174000D02*
D03*
X148000D02*
D03*
X121000Y297000D02*
D03*
X59000Y105000D02*
D03*
Y83000D02*
D03*
Y64000D02*
D03*
X110647Y212421D02*
D03*
X228000Y212000D02*
D03*
X189018Y180442D02*
D03*
X228000Y203000D02*
D03*
Y221000D02*
D03*
X207000Y148000D02*
D03*
Y129000D02*
D03*
X195000Y90000D02*
D03*
X234000Y62000D02*
D03*
X218000Y77000D02*
D03*
X660000Y54000D02*
D03*
X602960Y102912D02*
D03*
X691000Y170750D02*
D03*
X694780Y178053D02*
D03*
X693000Y254000D02*
D03*
X683000Y230000D02*
D03*
X714475Y226700D02*
D03*
X699395Y241823D02*
D03*
X576000Y381000D02*
D03*
X236000Y430000D02*
D03*
X311617Y44008D02*
D03*
X410933Y488453D02*
D03*
X130000Y225000D02*
D03*
X305000Y257000D02*
D03*
X412184Y549963D02*
D03*
X319580Y551279D02*
D03*
X683000Y685000D02*
D03*
X557000Y460515D02*
D03*
X660000Y550000D02*
D03*
X329000Y691000D02*
D03*
X679000Y693000D02*
D03*
X423000Y411000D02*
D03*
X557000Y712000D02*
D03*
X315000Y237000D02*
D03*
X411912Y614204D02*
D03*
X248877Y43967D02*
D03*
X660000Y331000D02*
D03*
X236000Y366000D02*
D03*
X319395Y355971D02*
D03*
X108000Y286000D02*
D03*
D30*
X30000Y30000D02*
D03*
X430000D02*
D03*
X30000Y445000D02*
D03*
Y770000D02*
D03*
X790000Y30000D02*
D03*
X455360Y770000D02*
D03*
X790000Y445000D02*
D03*
Y770000D02*
D03*
M02*
