G04*
G04 #@! TF.GenerationSoftware,Altium Limited,Altium Designer,25.8.1 (18)*
G04*
G04 Layer_Color=8388736*
%FSLAX44Y44*%
%MOMM*%
G71*
G04*
G04 #@! TF.SameCoordinates,2E00746A-E176-49EB-84F3-589E3ADB708A*
G04*
G04*
G04 #@! TF.FilePolarity,Negative*
G04*
G01*
G75*
%ADD12O,2.9032X1.0032*%
%ADD13C,1.1032*%
%ADD14C,1.3032*%
%ADD15C,1.1000*%
%ADD16C,5.2000*%
%ADD17C,0.8000*%
D12*
X114000Y677700D02*
D03*
Y652300D02*
D03*
X96000Y665000D02*
D03*
X393900Y677700D02*
D03*
Y652300D02*
D03*
X375900Y665000D02*
D03*
X282600D02*
D03*
X300600Y652300D02*
D03*
Y677700D02*
D03*
X207300D02*
D03*
Y652300D02*
D03*
X189300Y665000D02*
D03*
X393900Y612700D02*
D03*
Y587300D02*
D03*
X375900Y600000D02*
D03*
X96000D02*
D03*
X114000Y587300D02*
D03*
Y612700D02*
D03*
X300600D02*
D03*
Y587300D02*
D03*
X282600Y600000D02*
D03*
X189300D02*
D03*
X207300Y587300D02*
D03*
Y612700D02*
D03*
X393900Y547700D02*
D03*
Y522300D02*
D03*
X375900Y535000D02*
D03*
X282600D02*
D03*
X300600Y522300D02*
D03*
Y547700D02*
D03*
X207300D02*
D03*
Y522300D02*
D03*
X189300Y535000D02*
D03*
X96000D02*
D03*
X114000Y522300D02*
D03*
Y547700D02*
D03*
X393900Y482700D02*
D03*
Y457300D02*
D03*
X375900Y470000D02*
D03*
X96000D02*
D03*
X114000Y457300D02*
D03*
Y482700D02*
D03*
X300600D02*
D03*
Y457300D02*
D03*
X282600Y470000D02*
D03*
X189300D02*
D03*
X207300Y457300D02*
D03*
Y482700D02*
D03*
X393900Y417700D02*
D03*
Y392300D02*
D03*
X375900Y405000D02*
D03*
X282600D02*
D03*
X300600Y392300D02*
D03*
Y417700D02*
D03*
X207300D02*
D03*
Y392300D02*
D03*
X189300Y405000D02*
D03*
X96000D02*
D03*
X114000Y392300D02*
D03*
Y417700D02*
D03*
X393900Y352700D02*
D03*
Y327300D02*
D03*
X375900Y340000D02*
D03*
X96000D02*
D03*
X114000Y327300D02*
D03*
Y352700D02*
D03*
X300600D02*
D03*
Y327300D02*
D03*
X282600Y340000D02*
D03*
X189300D02*
D03*
X207300Y327300D02*
D03*
Y352700D02*
D03*
D13*
X651200Y706300D02*
D03*
X631200D02*
D03*
X651200Y596300D02*
D03*
X631200D02*
D03*
Y376300D02*
D03*
X651200D02*
D03*
X605200Y654300D02*
D03*
X585200D02*
D03*
X651200Y486300D02*
D03*
X631200D02*
D03*
X605200Y544300D02*
D03*
X585200D02*
D03*
X605200Y434300D02*
D03*
X585200D02*
D03*
X605200Y324300D02*
D03*
X585200D02*
D03*
D14*
X641200Y696300D02*
D03*
Y586300D02*
D03*
Y366300D02*
D03*
X595200Y644300D02*
D03*
X641200Y476300D02*
D03*
X595200Y534300D02*
D03*
Y424300D02*
D03*
Y314300D02*
D03*
D15*
X635400Y156350D02*
D03*
X648100D02*
D03*
X660800D02*
D03*
X673500D02*
D03*
X597300Y143650D02*
D03*
X584600D02*
D03*
X571900D02*
D03*
X559200D02*
D03*
X546500D02*
D03*
Y156350D02*
D03*
X571900D02*
D03*
X559200D02*
D03*
X584600D02*
D03*
X597300D02*
D03*
X610000D02*
D03*
X622700D02*
D03*
X673500Y143650D02*
D03*
X660800D02*
D03*
X648100D02*
D03*
X635400D02*
D03*
X622700D02*
D03*
X610000D02*
D03*
D16*
X790000Y770000D02*
D03*
Y445000D02*
D03*
X455360Y770000D02*
D03*
X790000Y30000D02*
D03*
X30000Y770000D02*
D03*
Y445000D02*
D03*
X430000Y30000D02*
D03*
X33000Y33000D02*
D03*
D17*
X691116Y350850D02*
D03*
M02*
