M48
;Layer_Color=9474304
;FILE_FORMAT=4:2
METRIC,TZ
;TYPE=PLATED
T04F00S00C0.50
%
G90
G05
T04
G00X870Y3400
M15
G01X1050
M16
G00X1050Y3273
M15
G01X1230
M16
G00X1050Y3527
M15
G01X1230
M16
G00X1050Y3923
M15
G01X1230
M16
G00X1983Y3923
M15
G01X2163
M16
G00X1983Y3527
M15
G01X2163
M16
G00X1983Y3273
M15
G01X2163
M16
G00X1803Y3400
M15
G01X1983
M16
G00X2736Y3400
M15
G01X2916
M16
G00X2916Y3527
M15
G01X3096
M16
G00X2916Y3273
M15
G01X3096
M16
G00X2916Y3923
M15
G01X3096
M16
G00X3849Y3923
M15
G01X4029
M16
G00X3849Y3527
M15
G01X4029
M16
G00X3849Y3273
M15
G01X4029
M16
G00X3669Y3400
M15
G01X3849
M16
G00X3669Y4050
M15
G01X3849
M16
G00X3849Y4177
M15
G01X4029
M16
G00X3849Y4573
M15
G01X4029
M16
G00X3849Y4827
M15
G01X4029
M16
G00X3669Y4700
M15
G01X3849
M16
G00X3669Y5350
M15
G01X3849
M16
G00X3849Y5477
M15
G01X4029
M16
G00X3849Y5223
M15
G01X4029
M16
G00X3849Y5873
M15
G01X4029
M16
G00X3849Y6127
M15
G01X4029
M16
G00X3669Y6000
M15
G01X3849
M16
G00X3669Y6650
M15
G01X3849
M16
G00X3849Y6777
M15
G01X4029
M16
G00X3849Y6523
M15
G01X4029
M16
G00X2916Y6523
M15
G01X3096
M16
G00X2916Y6777
M15
G01X3096
M16
G00X2736Y6650
M15
G01X2916
M16
G00X2736Y6000
M15
G01X2916
M16
G00X2916Y6127
M15
G01X3096
M16
G00X2916Y5873
M15
G01X3096
M16
G00X2916Y5477
M15
G01X3096
M16
G00X2916Y5223
M15
G01X3096
M16
G00X2736Y5350
M15
G01X2916
M16
G00X2736Y4700
M15
G01X2916
M16
G00X2916Y4827
M15
G01X3096
M16
G00X2916Y4573
M15
G01X3096
M16
G00X2916Y4177
M15
G01X3096
M16
G00X2736Y4050
M15
G01X2916
M16
G00X1983Y4177
M15
G01X2163
M16
G00X1803Y4050
M15
G01X1983
M16
G00X1803Y4700
M15
G01X1983
M16
G00X1983Y4573
M15
G01X2163
M16
G00X1983Y4827
M15
G01X2163
M16
G00X1983Y5223
M15
G01X2163
M16
G00X1983Y5477
M15
G01X2163
M16
G00X1803Y5350
M15
G01X1983
M16
G00X1803Y6000
M15
G01X1983
M16
G00X1983Y5873
M15
G01X2163
M16
G00X1983Y6127
M15
G01X2163
M16
G00X1983Y6523
M15
G01X2163
M16
G00X1983Y6777
M15
G01X2163
M16
G00X1803Y6650
M15
G01X1983
M16
G00X1050Y6777
M15
G01X1230
M16
G00X1050Y6523
M15
G01X1230
M16
G00X870Y6650
M15
G01X1050
M16
G00X870Y6000
M15
G01X1050
M16
G00X1050Y5873
M15
G01X1230
M16
G00X1050Y6127
M15
G01X1230
M16
G00X1050Y5477
M15
G01X1230
M16
G00X1050Y5223
M15
G01X1230
M16
G00X870Y5350
M15
G01X1050
M16
G00X870Y4700
M15
G01X1050
M16
G00X1050Y4573
M15
G01X1230
M16
G00X1050Y4827
M15
G01X1230
M16
G00X1050Y4177
M15
G01X1230
M16
G00X870Y4050
M15
G01X1050
M16
M17
M30
